<svg width="572" height="444" viewBox="0 0 572 444" fill="none" xmlns="http://www.w3.org/2000/svg">
<g clip-path="url(#clip0_39304_7321)">
<rect x="-7" width="588" height="444" fill="#F3F4F6"/>
<g opacity="0.5" clip-path="url(#clip1_39304_7321)">
<path d="M-50.6328 328.56C-50.6328 323.79 -46.7659 319.923 -41.9959 319.923H75.4842C80.2543 319.923 84.1212 323.79 84.1212 328.56V398.571C84.1212 401.751 81.5432 404.329 78.3632 404.329H-44.8748C-48.0549 404.329 -50.6328 401.751 -50.6328 398.571V328.56Z" fill="#0C7AFF"/>
<path fill-rule="evenodd" clip-rule="evenodd" d="M-129.363 305C-134.133 305 -138 308.867 -138 313.637V392.242C-138 392.253 -138 392.264 -138 392.275V487.42C-138 490.6 -135.422 493.178 -132.242 493.178H88.7297C91.9098 493.178 94.4877 490.6 94.4877 487.42V341.97C94.4877 338.79 91.9098 336.212 88.7297 336.212H-44V313.637C-44 308.867 -47.8669 305 -52.6369 305H-129.363Z" fill="#3692FF"/>
</g>
<g opacity="0.5" clip-path="url(#clip2_39304_7321)">
<path d="M566.367 328.56C566.367 323.79 570.234 319.923 575.004 319.923H692.484C697.254 319.923 701.121 323.79 701.121 328.56V398.571C701.121 401.751 698.543 404.329 695.363 404.329H572.125C568.945 404.329 566.367 401.751 566.367 398.571V328.56Z" fill="#0C7AFF"/>
<path fill-rule="evenodd" clip-rule="evenodd" d="M487.637 305C482.867 305 479 308.867 479 313.637V392.242C479 392.253 479 392.264 479 392.275V487.42C479 490.6 481.578 493.178 484.758 493.178H705.73C708.91 493.178 711.488 490.6 711.488 487.42V341.97C711.488 338.79 708.91 336.212 705.73 336.212H573V313.637C573 308.867 569.133 305 564.363 305H487.637Z" fill="#3692FF"/>
</g>
</g>
<g clip-path="url(#clip3_39304_7321)">
<path d="M251.086 328.194C251.086 323.424 254.953 319.557 259.723 319.557H377.203C381.973 319.557 385.84 323.424 385.84 328.194V398.206C385.84 401.386 383.262 403.964 380.082 403.964H256.844C253.664 403.964 251.086 401.386 251.086 398.206V328.194Z" fill="#0C7AFF"/>
<path fill-rule="evenodd" clip-rule="evenodd" d="M172.356 304.634C167.586 304.634 163.719 308.501 163.719 313.271V391.876C163.719 391.887 163.719 391.898 163.719 391.909V487.055C163.719 490.235 166.297 492.812 169.477 492.812H390.448C393.629 492.812 396.206 490.235 396.206 487.055V341.604C396.206 338.424 393.629 335.846 390.448 335.846H257.719V313.271C257.719 308.501 253.852 304.634 249.082 304.634H172.356Z" fill="#3692FF"/>
</g>
<path d="M67.8359 123.251C67.8359 116.623 73.2085 111.251 79.8359 111.251H196.831V242.546H79.8359C73.2085 242.546 67.8359 237.174 67.8359 230.546V123.251Z" fill="#8698FF"/>
<path d="M115.494 144.408C115.425 143.797 115.462 143.177 115.605 142.578C116.754 137.762 123.276 136.979 125.475 141.393C125.749 141.942 125.924 142.536 125.994 143.147L132.158 197.314C132.488 200.215 130.405 202.85 127.506 203.198C124.607 203.546 121.989 201.476 121.658 198.575L115.494 144.408Z" fill="#E02D2C"/>
<path fill-rule="evenodd" clip-rule="evenodd" d="M121.698 133.837C123.675 137.781 121.116 142.53 116.724 143.07C116.032 143.154 115.546 142.49 115.711 141.81L118.444 130.578C118.625 129.835 119.631 129.713 119.972 130.393L121.698 133.837Z" fill="white"/>
<path fill-rule="evenodd" clip-rule="evenodd" d="M120.614 131.686C121.035 132.525 120.491 133.536 119.557 133.65C118.621 133.765 117.866 132.911 118.091 131.993L118.437 130.578C118.619 129.836 119.623 129.713 119.964 130.392L120.614 131.686Z" fill="#E02D2C"/>
<path d="M139.877 143.146C139.947 142.535 140.123 141.941 140.397 141.392C142.597 136.979 149.119 137.764 150.266 142.58C150.409 143.18 150.446 143.799 150.376 144.411L144.193 198.575C143.862 201.477 141.244 203.545 138.344 203.196C135.445 202.847 133.363 200.212 133.695 197.311L139.877 143.146Z" fill="#292424"/>
<path fill-rule="evenodd" clip-rule="evenodd" d="M148.242 134.495C149.272 138.731 145.788 142.661 141.475 142.13C140.697 142.034 140.342 141.173 140.692 140.475L145.759 130.376C146.101 129.696 147.106 129.819 147.287 130.562L148.242 134.495Z" fill="white"/>
<path fill-rule="evenodd" clip-rule="evenodd" d="M147.685 131.674C147.91 132.593 147.155 133.446 146.219 133.331C145.285 133.216 144.741 132.205 145.163 131.366L145.813 130.074C146.154 129.395 147.158 129.518 147.339 130.261L147.685 131.674Z" fill="#292424"/>
<path d="M109.709 173.831C109.709 167.203 115.082 161.831 121.709 161.831H156.103V220.55H121.709C115.082 220.55 109.709 215.177 109.709 208.55V173.831Z" fill="#5F76FF"/>
<path d="M109.709 188.726C109.709 182.943 114.397 178.255 120.18 178.255H156.103V199.197H120.18C114.397 199.197 109.709 194.509 109.709 188.726Z" fill="#FFD875"/>
<path d="M226.371 123.251C226.371 116.623 231.744 111.251 238.371 111.251H355.366V242.546H238.371C231.744 242.546 226.371 237.174 226.371 230.546V123.251Z" fill="#B9D9FF"/>
<path d="M260.814 149.783C260.814 143.461 265.718 138.224 272.026 137.809L307.612 135.465C314.535 135.009 320.401 140.501 320.401 147.439V203.964C320.401 210.591 315.028 215.964 308.401 215.964H272.814C266.187 215.964 260.814 210.591 260.814 203.964V149.783Z" fill="#F3F4F6"/>
<path d="M260.814 151.054C260.814 144.232 266.495 138.782 273.311 139.065L309.598 140.568C316.027 140.834 321.102 146.123 321.102 152.558V206.518C321.102 213.396 315.332 218.867 308.463 218.501L272.176 216.569C265.806 216.229 260.814 210.965 260.814 204.586V151.054Z" fill="#4E93EF"/>
<path d="M296.916 146.907C296.916 143.124 300.063 140.1 303.843 140.252C307.414 140.396 310.235 143.333 310.235 146.907V154.497C310.235 157.043 307.448 158.607 305.275 157.28C304.232 156.643 302.92 156.643 301.876 157.28C299.703 158.607 296.916 157.043 296.916 154.497V146.907Z" fill="white"/>
<path d="M379.984 123.251C379.984 116.623 385.357 111.251 391.984 111.251H508.979V242.546H391.984C385.357 242.546 379.984 237.174 379.984 230.546V123.251Z" fill="#FFB9E3"/>
<path d="M437.879 179.78C438.079 179.112 439.561 177.775 443.886 177.775C448.211 177.775 449.893 179.112 450.193 179.78" stroke="#FF46C0" stroke-width="3.84902"/>
<path d="M434.312 186.653C434.298 186.663 434.283 186.674 434.269 186.685C434.269 186.685 434.269 186.685 434.269 186.685C433.962 186.917 433.615 187.278 433.384 187.803C433.163 188.303 433.145 188.735 433.144 188.919C433.145 188.597 433.197 188.31 433.25 188.1C433.281 187.978 433.335 187.791 433.43 187.577C433.465 187.498 433.541 187.329 433.677 187.125M434.312 186.653L434.263 186.677C434.137 186.767 433.938 186.919 433.677 187.125M434.312 186.653L436.097 188.703M434.312 186.653L420.226 201.895C422.284 200.231 425.323 197.721 428.189 195.353C431.881 192.304 435.286 189.491 435.935 189.031C435.953 189.018 435.969 189.01 435.982 189.004C436.013 188.988 436.031 188.98 436.031 188.928C436.031 188.872 436.056 188.739 436.097 188.703M433.677 187.125C432.512 188.042 430.122 190.013 427.576 192.116C427.173 192.448 426.763 192.787 426.35 193.128C423.494 195.487 420.482 197.974 418.438 199.628C418.148 199.843 417.63 199.843 417.34 199.628C414.909 197.661 411.045 194.456 407.746 191.703C406.092 190.324 404.585 189.062 403.478 188.132C402.758 187.527 402.252 187.1 401.973 186.865C401.8 186.719 401.714 186.647 401.72 186.653C399.576 184.644 398.404 182.05 398.404 179.378V179.011C398.596 173.882 403.365 169.339 409.319 169.339C410.836 169.339 413.146 170.278 414.541 171.762C414.545 171.768 414.576 171.807 414.656 171.92C414.664 171.931 414.674 171.944 414.684 171.959C414.775 172.087 414.954 172.339 415.15 172.569C415.539 173.023 416.839 174.374 418.87 173.872L418.177 171.069L418.87 173.872C420.183 173.547 420.852 172.603 421.095 172.229C421.206 172.058 421.31 171.873 421.354 171.794C421.36 171.783 421.365 171.774 421.369 171.768C421.383 171.743 421.392 171.726 421.399 171.715C421.915 171.023 422.768 170.356 423.803 169.856C424.866 169.342 425.858 169.13 426.459 169.13C432.576 169.13 437.181 173.618 437.374 179.009V179.378C437.374 182.28 436.191 184.793 434.201 186.526C433.97 186.727 433.799 186.94 433.677 187.125ZM436.097 188.703C438.728 186.411 440.261 183.1 440.261 179.378V178.961L434.312 186.653L436.097 188.703Z" stroke="#FF68CC" stroke-width="5.77353"/>
<path d="M485.539 186.653C485.524 186.663 485.51 186.674 485.496 186.685C485.496 186.685 485.496 186.685 485.496 186.685C485.188 186.917 484.842 187.278 484.61 187.803C484.39 188.303 484.371 188.735 484.371 188.919C484.372 188.597 484.423 188.31 484.477 188.1C484.507 187.978 484.562 187.791 484.656 187.577C484.691 187.498 484.768 187.329 484.904 187.125M485.539 186.653L485.49 186.677C485.364 186.767 485.164 186.919 484.904 187.125M485.539 186.653L487.324 188.703M485.539 186.653L471.453 201.895C473.51 200.231 476.549 197.721 479.415 195.353C483.108 192.304 486.513 189.491 487.162 189.031C487.179 189.018 487.195 189.01 487.209 189.004C487.24 188.988 487.258 188.98 487.258 188.928C487.258 188.872 487.282 188.739 487.324 188.703M484.904 187.125C483.739 188.042 481.349 190.013 478.802 192.116C478.399 192.448 477.989 192.787 477.576 193.128C474.721 195.487 471.709 197.974 469.665 199.628C469.375 199.843 468.857 199.843 468.566 199.628C466.135 197.661 462.272 194.456 458.972 191.703C457.319 190.324 455.812 189.062 454.705 188.132C453.984 187.527 453.478 187.1 453.199 186.865C453.026 186.719 452.941 186.647 452.947 186.653C450.802 184.644 449.631 182.05 449.631 179.378V179.011C449.823 173.882 454.592 169.339 460.545 169.339C462.063 169.339 464.372 170.278 465.767 171.762C465.771 171.768 465.802 171.807 465.883 171.92C465.891 171.931 465.9 171.944 465.911 171.959C466.002 172.087 466.18 172.339 466.377 172.569C466.766 173.023 468.066 174.374 470.096 173.872L469.404 171.069L470.096 173.872C471.409 173.547 472.078 172.603 472.321 172.229C472.433 172.058 472.536 171.873 472.581 171.794C472.587 171.783 472.592 171.774 472.595 171.768C472.609 171.743 472.619 171.726 472.626 171.715C473.141 171.023 473.995 170.356 475.03 169.856C476.092 169.342 477.084 169.13 477.686 169.13C483.802 169.13 488.408 173.618 488.6 179.009V179.378C488.6 182.28 487.418 184.793 485.428 186.526C485.197 186.727 485.026 186.94 484.904 187.125ZM487.324 188.703C489.955 186.411 491.487 183.1 491.487 179.378V178.961L485.539 186.653L487.324 188.703Z" stroke="#FF68CC" stroke-width="5.77353"/>
<path d="M399.906 148.111C400.227 146.204 402.966 146.204 403.287 148.111C403.377 148.647 403.716 149.108 404.201 149.355L404.71 149.614C406.785 150.669 406.785 153.634 404.71 154.69L404.201 154.949C403.716 155.195 403.377 155.656 403.287 156.192C402.966 158.099 400.227 158.099 399.906 156.192C399.816 155.656 399.477 155.195 398.993 154.949L398.483 154.69C396.408 153.634 396.408 150.669 398.483 149.614L398.993 149.355C399.477 149.108 399.816 148.647 399.906 148.111Z" fill="white"/>
<path d="M416.409 141.006C416.608 139.81 418.327 139.81 418.526 141.006C418.581 141.34 418.791 141.628 419.092 141.784L419.42 141.953C420.725 142.626 420.725 144.492 419.42 145.165L419.092 145.334C418.791 145.49 418.581 145.778 418.526 146.112C418.327 147.308 416.608 147.308 416.409 146.112C416.354 145.778 416.144 145.49 415.843 145.334L415.515 145.165C414.211 144.492 414.211 142.626 415.515 141.953L415.843 141.784C416.144 141.628 416.354 141.34 416.409 141.006Z" fill="white"/>
<path d="M403.39 271.173C399.817 265.619 401.374 258.145 406.868 254.48L494.759 391.089C489.265 394.755 481.914 393.223 478.34 387.669L403.39 271.173Z" fill="#374151"/>
<path fill-rule="evenodd" clip-rule="evenodd" d="M411.158 261.144C413.528 264.828 412.496 269.79 408.852 272.223L405.576 274.411C405.535 274.439 405.48 274.427 405.453 274.385L403.391 271.18C401.318 267.957 400.971 264.088 402.118 260.691C403.53 256.509 408.789 257.462 411.158 261.144Z" fill="#3692FF"/>
<path d="M406.357 275.749C405.913 275.058 406.107 274.128 406.79 273.672L415.447 267.894L417.056 270.396L408.399 276.174C407.715 276.63 406.801 276.44 406.357 275.749Z" fill="#111827"/>
<defs>
<clipPath id="clip0_39304_7321">
<path d="M-7 12C-7 5.37258 -1.62742 0 5 0H572V444H4.99999C-1.62743 444 -7 438.627 -7 432V12Z" fill="white"/>
</clipPath>
<clipPath id="clip1_39304_7321">
<rect width="293" height="162" fill="white" transform="translate(-166 282)"/>
</clipPath>
<clipPath id="clip2_39304_7321">
<rect width="293" height="162" fill="white" transform="translate(451 282)"/>
</clipPath>
<clipPath id="clip3_39304_7321">
<path d="M139.719 293.634C139.719 287.007 145.091 281.634 151.719 281.634H428.234V444H151.719C145.091 444 139.719 438.627 139.719 432V293.634Z" fill="white"/>
</clipPath>
</defs>
</svg>
