<svg width="580" height="444" viewBox="0 0 580 444" fill="none" xmlns="http://www.w3.org/2000/svg">
<g clip-path="url(#clip0_39304_3326)">
<rect x="0.5" width="588" height="444" fill="#F3F4F6"/>
<rect x="199.5" y="137" width="191" height="191" rx="39" fill="white"/>
<rect x="-67.5" y="137" width="191" height="191" rx="39" fill="white"/>
<path fill-rule="evenodd" clip-rule="evenodd" d="M256.745 158.91C255.421 167.267 244.75 173.78 231.782 173.78C218.347 173.78 207.377 166.789 206.712 158L160.898 160.743C157.866 160.925 155.5 163.437 155.5 166.475V198.696C155.5 202.219 158.644 204.911 162.126 204.369L173.291 202.629C176.996 202.051 180.25 205.122 179.89 208.854L171.41 296.645C171.091 299.946 173.627 302.83 176.942 302.935L271.17 305.944C274.411 306.047 277.095 303.448 277.095 300.205V212.473C277.095 208.828 280.448 206.105 284.016 206.854L296.579 209.491C300.147 210.24 303.5 207.517 303.5 203.872V172.654C303.5 169.902 301.547 167.536 298.844 167.016L256.745 158.91Z" fill="#4DC380"/>
<path d="M222.9 224.367C223.459 226.764 221.508 229.268 219.398 229.76C217.289 230.253 214.517 228.85 213.958 226.453C213.399 224.056 215.012 220.862 217.122 220.37C219.935 219.713 222.34 221.969 222.9 224.367Z" fill="#37B36B"/>
<path d="M233.663 224.458C232.851 226.782 234.524 229.48 236.57 230.194C238.615 230.908 241.52 229.809 242.331 227.485C243.142 225.161 241.878 221.813 239.833 221.099C237.106 220.147 234.474 222.134 233.663 224.458Z" fill="#37B36B"/>
<path d="M243.766 238.108C243.391 245.132 236.393 247.376 227.037 246.877C217.68 246.377 211.116 243.408 211.491 236.384C211.927 228.214 217.419 221.966 228.336 222.549C239.252 223.132 244.236 229.321 243.766 238.108Z" fill="#37B36B"/>
<path d="M225.495 235.021C225.387 237.059 224.007 239.227 222.245 239.133C220.483 239.039 217.726 237.226 217.888 234.183C218.041 231.323 221.17 230.471 224.319 231.163C226.249 231.587 225.604 232.984 225.495 235.021Z" fill="#269E58"/>
<path d="M222.217 234.542C222.196 234.941 222.299 235.271 222.901 235.303C223.504 235.335 223.641 235.018 223.663 234.619C223.684 234.22 223.46 233.883 222.979 233.858C222.497 233.832 222.239 234.143 222.217 234.542Z" fill="white"/>
<path d="M229.987 235.261C229.878 237.299 231.019 239.601 232.781 239.695C234.543 239.789 237.478 238.281 237.64 235.237C237.793 232.378 234.772 231.197 231.568 231.55C229.603 231.766 230.095 233.223 229.987 235.261Z" fill="#269E58"/>
<path d="M233.297 235.133C233.276 235.533 233.138 235.85 232.536 235.817C231.934 235.785 231.831 235.455 231.852 235.056C231.873 234.657 232.131 234.347 232.613 234.372C233.095 234.398 233.319 234.734 233.297 235.133Z" fill="white"/>
<path d="M385.516 137.949C385.242 129.213 377.834 122.275 368.507 122.275C365.489 122.275 360.825 124.331 358.905 127.671C358.63 128.442 357.533 128.442 357.259 127.671C355.064 124.588 350.674 122.532 347.382 122.532C338.329 122.532 330.647 129.47 330.373 137.949V138.463C330.373 142.831 332.293 146.942 335.586 150.025C335.86 150.282 349.028 161.331 355.064 166.213C356.71 167.498 359.179 167.498 360.825 166.213C366.861 161.331 379.755 150.539 380.303 150.282C380.303 150.282 380.303 150.282 380.303 150.025C383.596 147.199 385.516 143.088 385.516 138.463V137.949Z" fill="url(#paint0_linear_39304_3326)"/>
<path d="M336.265 91.0005C334.445 86.7004 329.415 84.7214 324.765 86.5843C323.261 87.187 321.332 89.1431 321.019 91.1917C321.031 91.6307 320.484 91.8499 320.198 91.5204C318.51 90.4217 315.925 90.2737 314.284 90.9311C309.771 92.7392 307.28 97.7316 308.777 102.013L308.876 102.269C309.718 104.447 311.468 106.113 313.704 106.992C313.89 107.065 322.584 109.943 326.534 111.171C327.602 111.483 328.833 110.99 329.406 110.021C331.473 106.382 335.821 98.4271 336.045 98.1895C336.045 98.1895 336.045 98.1895 335.995 98.0614C337.091 95.995 337.256 93.5621 336.364 91.2566L336.265 91.0005Z" fill="url(#paint1_linear_39304_3326)"/>
<path d="M382.376 92.91C384.264 88.6396 382.302 83.527 377.813 81.2935C376.36 80.5709 373.64 80.4435 371.944 81.5913C371.634 81.8967 371.106 81.6339 371.152 81.1972C370.808 79.1877 369.171 77.1473 367.586 76.359C363.229 74.1912 357.928 75.6909 355.836 79.7062L355.718 79.9535C354.708 82.0559 354.682 84.4944 355.554 86.7667C355.627 86.956 359.411 95.4268 361.187 99.2217C361.683 100.234 362.871 100.825 363.96 100.601C367.993 99.6967 376.694 97.5902 377.017 97.5979C377.017 97.5979 377.017 97.5979 377.076 97.4742C379.314 96.9022 381.189 95.3833 382.258 93.1573L382.376 92.91Z" fill="url(#paint2_linear_39304_3326)"/>
<rect x="466.5" y="137" width="191" height="191" rx="39" fill="white"/>
<path fill-rule="evenodd" clip-rule="evenodd" d="M256.745 158.91C255.421 167.267 244.75 173.78 231.782 173.78C218.347 173.78 207.377 166.789 206.712 158L160.898 160.743C157.866 160.925 155.5 163.437 155.5 166.475V198.696C155.5 202.219 158.644 204.911 162.126 204.369L173.291 202.629C176.996 202.051 180.25 205.122 179.89 208.854L171.41 296.645C171.091 299.946 173.627 302.83 176.942 302.935L271.17 305.944C274.411 306.047 277.095 303.448 277.095 300.205V212.473C277.095 208.828 280.448 206.105 284.016 206.854L296.579 209.491C300.147 210.24 303.5 207.517 303.5 203.872V172.654C303.5 169.902 301.547 167.536 298.844 167.016L256.745 158.91Z" fill="#4DC380"/>
<path d="M222.9 224.367C223.459 226.764 221.508 229.268 219.398 229.76C217.289 230.253 214.517 228.85 213.958 226.453C213.399 224.056 215.012 220.862 217.122 220.37C219.935 219.713 222.34 221.969 222.9 224.367Z" fill="#37B36B"/>
<path d="M233.663 224.458C232.851 226.782 234.524 229.48 236.57 230.194C238.615 230.908 241.52 229.809 242.331 227.485C243.142 225.161 241.878 221.813 239.833 221.099C237.106 220.147 234.474 222.134 233.663 224.458Z" fill="#37B36B"/>
<path d="M243.766 238.108C243.391 245.132 236.393 247.376 227.037 246.877C217.68 246.377 211.116 243.408 211.491 236.384C211.927 228.214 217.419 221.966 228.336 222.549C239.252 223.132 244.236 229.321 243.766 238.108Z" fill="#37B36B"/>
<path d="M225.495 235.021C225.387 237.059 224.007 239.227 222.245 239.133C220.483 239.039 217.726 237.226 217.888 234.183C218.041 231.323 221.17 230.471 224.319 231.163C226.249 231.587 225.604 232.984 225.495 235.021Z" fill="#269E58"/>
<path d="M222.217 234.542C222.196 234.941 222.299 235.271 222.901 235.303C223.504 235.335 223.641 235.018 223.663 234.619C223.684 234.22 223.46 233.883 222.979 233.858C222.497 233.832 222.239 234.143 222.217 234.542Z" fill="white"/>
<path d="M229.987 235.261C229.878 237.299 231.019 239.601 232.781 239.695C234.543 239.789 237.478 238.281 237.64 235.237C237.793 232.378 234.772 231.197 231.568 231.55C229.603 231.766 230.095 233.223 229.987 235.261Z" fill="#269E58"/>
<path d="M233.297 235.133C233.276 235.533 233.138 235.85 232.536 235.817C231.934 235.785 231.831 235.455 231.852 235.056C231.873 234.657 232.131 234.347 232.613 234.372C233.095 234.398 233.319 234.734 233.297 235.133Z" fill="white"/>
<path d="M385.516 137.949C385.242 129.213 377.834 122.275 368.507 122.275C365.489 122.275 360.825 124.331 358.905 127.671C358.63 128.442 357.533 128.442 357.259 127.671C355.064 124.588 350.674 122.532 347.382 122.532C338.329 122.532 330.647 129.47 330.373 137.949V138.463C330.373 142.831 332.293 146.942 335.586 150.025C335.86 150.282 349.028 161.331 355.064 166.213C356.71 167.498 359.179 167.498 360.825 166.213C366.861 161.331 379.755 150.539 380.303 150.282C380.303 150.282 380.303 150.282 380.303 150.025C383.596 147.199 385.516 143.088 385.516 138.463V137.949Z" fill="url(#paint3_linear_39304_3326)"/>
<path d="M336.265 91.0005C334.445 86.7004 329.415 84.7214 324.765 86.5843C323.261 87.187 321.332 89.1431 321.019 91.1917C321.031 91.6307 320.484 91.8499 320.198 91.5204C318.51 90.4217 315.925 90.2737 314.284 90.9311C309.771 92.7392 307.28 97.7316 308.777 102.013L308.876 102.269C309.718 104.447 311.468 106.113 313.704 106.992C313.89 107.065 322.584 109.943 326.534 111.171C327.602 111.483 328.833 110.99 329.406 110.021C331.473 106.382 335.821 98.4271 336.045 98.1895C336.045 98.1895 336.045 98.1895 335.995 98.0614C337.091 95.995 337.256 93.5621 336.364 91.2566L336.265 91.0005Z" fill="url(#paint4_linear_39304_3326)"/>
<path d="M382.376 92.91C384.264 88.6396 382.302 83.527 377.813 81.2935C376.36 80.5709 373.64 80.4435 371.944 81.5913C371.634 81.8967 371.106 81.6339 371.152 81.1972C370.808 79.1877 369.171 77.1473 367.586 76.359C363.229 74.1912 357.928 75.6909 355.836 79.7062L355.718 79.9535C354.708 82.0559 354.682 84.4944 355.554 86.7667C355.627 86.956 359.411 95.4268 361.187 99.2217C361.683 100.234 362.871 100.825 363.96 100.601C367.993 99.6967 376.694 97.5902 377.017 97.5979C377.017 97.5979 377.017 97.5979 377.076 97.4742C379.314 96.9022 381.189 95.3833 382.258 93.1573L382.376 92.91Z" fill="url(#paint5_linear_39304_3326)"/>
<path d="M160.163 346.402C164.475 361.252 153.074 377.615 140.007 381.409C126.939 385.203 109.085 377.334 104.774 362.484C100.462 347.634 109.513 327.059 122.581 323.265C140.007 318.205 155.852 331.552 160.163 346.402Z" fill="#222327"/>
<path d="M167.347 346.402C163.035 361.252 174.435 377.615 187.503 381.409C200.571 385.204 218.424 377.334 222.736 362.484C227.048 347.634 217.996 327.059 204.928 323.265C187.503 318.205 171.658 331.552 167.347 346.402Z" fill="#222327"/>
<path d="M258.5 460.385C258.5 500.2 218.122 515 163.043 515C107.965 515 68.5 500.2 68.5 460.385C68.5 414.071 107.965 373 163.043 373C218.122 373 258.5 410.576 258.5 460.385Z" fill="white"/>
<path fill-rule="evenodd" clip-rule="evenodd" d="M163.414 526.134C230.942 526.134 280.448 507.166 280.448 456.138C280.448 392.301 230.942 344.144 163.414 344.144C95.8853 344.144 47.5 396.781 47.5 456.138C47.5 507.166 95.8853 526.134 163.414 526.134ZM160.762 506.535C210.435 506.535 246.85 492.645 246.85 455.276C246.85 408.528 210.435 373.262 160.762 373.262C111.09 373.262 75.4986 411.809 75.4986 455.276C75.4986 492.645 111.09 506.535 160.762 506.535Z" fill="white"/>
<path d="M408.163 346.402C412.475 361.252 401.074 377.615 388.007 381.409C374.939 385.203 357.085 377.334 352.774 362.484C348.462 347.634 357.513 327.059 370.581 323.265C388.007 318.205 403.852 331.552 408.163 346.402Z" fill="#222327"/>
<path d="M415.347 346.402C411.035 361.252 422.435 377.615 435.503 381.409C448.571 385.204 466.424 377.334 470.736 362.484C475.048 347.634 465.996 327.059 452.928 323.265C435.503 318.205 419.658 331.552 415.347 346.402Z" fill="#222327"/>
<path d="M506.5 460.385C506.5 500.2 466.122 515 411.043 515C355.965 515 316.5 500.2 316.5 460.385C316.5 414.071 355.965 373 411.043 373C466.122 373 506.5 410.576 506.5 460.385Z" fill="white"/>
<path fill-rule="evenodd" clip-rule="evenodd" d="M411.414 526.134C478.942 526.134 528.448 507.166 528.448 456.138C528.448 392.301 478.942 344.144 411.414 344.144C343.885 344.144 295.5 396.781 295.5 456.138C295.5 507.166 343.885 526.134 411.414 526.134ZM408.762 506.535C458.435 506.535 494.85 492.645 494.85 455.276C494.85 408.528 458.435 373.262 408.762 373.262C359.09 373.262 323.499 411.809 323.499 455.276C323.499 492.645 359.09 506.535 408.762 506.535Z" fill="white"/>
</g>
<defs>
<linearGradient id="paint0_linear_39304_3326" x1="357.944" y1="122.275" x2="357.944" y2="167.177" gradientUnits="userSpaceOnUse">
<stop stop-color="#FF37BB"/>
<stop offset="1" stop-color="#FF68CC"/>
</linearGradient>
<linearGradient id="paint1_linear_39304_3326" x1="319.5" y1="88.6937" x2="328.424" y2="110.969" gradientUnits="userSpaceOnUse">
<stop stop-color="#FF37BB"/>
<stop offset="1" stop-color="#FF68CC"/>
</linearGradient>
<linearGradient id="paint2_linear_39304_3326" x1="372.729" y1="78.7644" x2="362.052" y2="100.226" gradientUnits="userSpaceOnUse">
<stop stop-color="#FF37BB"/>
<stop offset="1" stop-color="#FF68CC"/>
</linearGradient>
<linearGradient id="paint3_linear_39304_3326" x1="357.944" y1="122.275" x2="357.944" y2="167.177" gradientUnits="userSpaceOnUse">
<stop stop-color="#FF37BB"/>
<stop offset="1" stop-color="#FF68CC"/>
</linearGradient>
<linearGradient id="paint4_linear_39304_3326" x1="319.5" y1="88.6937" x2="328.424" y2="110.969" gradientUnits="userSpaceOnUse">
<stop stop-color="#FF37BB"/>
<stop offset="1" stop-color="#FF68CC"/>
</linearGradient>
<linearGradient id="paint5_linear_39304_3326" x1="372.729" y1="78.7644" x2="362.052" y2="100.226" gradientUnits="userSpaceOnUse">
<stop stop-color="#FF37BB"/>
<stop offset="1" stop-color="#FF68CC"/>
</linearGradient>
<clipPath id="clip0_39304_3326">
<rect width="579" height="444" fill="white" transform="translate(0.5)"/>
</clipPath>
</defs>
</svg>
