<svg width="579" height="444" viewBox="0 0 579 444" fill="none" xmlns="http://www.w3.org/2000/svg">
<g clip-path="url(#clip0_39304_3153)">
<rect width="579" height="444" fill="#F3F4F6"/>
<rect x="52" y="161" width="133" height="133" rx="22" fill="#F9FAFB"/>
<rect x="-105" y="161" width="133" height="133" rx="22" fill="#F9FAFB"/>
<rect x="403" y="161" width="133" height="133" rx="22" fill="#F9FAFB"/>
<rect x="560" y="161" width="133" height="133" rx="22" fill="#F9FAFB"/>
</g>
<rect x="205.801" y="143.323" width="167.398" height="170.384" rx="22" fill="#E5E7EB"/>
<rect x="205.801" y="143.323" width="167.398" height="170.384" rx="22" fill="url(#paint0_linear_39304_3153)"/>
<path d="M278.995 245.168C278.995 232.786 281.882 229.008 287.449 225.336C292.088 222.293 295.593 219.669 295.593 215.367C295.593 211.484 292.5 208.861 288.686 208.861C284.665 208.861 281.16 211.904 281.057 216.416H262.912C263.118 200.256 274.768 193.436 288.789 193.436C304.253 193.436 315.594 200.466 315.594 214.318C315.594 223.237 310.851 228.589 303.738 232.786C298.377 236.039 295.696 239.082 295.696 245.168V246.847H278.995V245.168ZM287.552 271.612C281.985 271.612 277.449 267.1 277.552 261.433C277.449 255.872 281.985 251.359 287.552 251.359C292.81 251.359 297.552 255.872 297.552 261.433C297.552 267.1 292.81 271.612 287.552 271.612Z" fill="#D1D5DB"/>
<path d="M427.284 350.43C430.11 353.307 434.734 353.348 437.61 350.521C440.487 347.695 440.528 343.072 437.702 340.195L427.284 350.43ZM384.731 307.118L427.284 350.43L437.702 340.195L395.148 296.883L384.731 307.118Z" fill="#3692FF"/>
<path d="M404.585 263.738C404.585 293.119 381.217 316.716 352.663 316.716C324.109 316.716 300.742 293.119 300.742 263.738C300.742 234.357 324.109 210.76 352.663 210.76C381.217 210.76 404.585 234.357 404.585 263.738Z" stroke="black" stroke-width="14.6041"/>
<defs>
<linearGradient id="paint0_linear_39304_3153" x1="232.388" y1="150.84" x2="354.398" y2="323.713" gradientUnits="userSpaceOnUse">
<stop stop-color="#BFD5FF"/>
<stop offset="1" stop-color="#E5E7EB" stop-opacity="0"/>
</linearGradient>
<clipPath id="clip0_39304_3153">
<rect width="579" height="444" fill="white"/>
</clipPath>
</defs>
</svg>
