<svg width="746" height="340" viewBox="0 0 746 340" fill="none" xmlns="http://www.w3.org/2000/svg">
<g clip-path="url(#clip0_39304_8249)">
<rect width="102.494" height="189.553" rx="8" transform="matrix(0.967453 -0.25305 0.24992 0.968267 58.375 94.0405)" fill="#FFE7D1"/>
<path d="M174.536 160.438C173.432 156.16 176.002 151.785 180.277 150.667L222.373 139.657C226.648 138.539 231.008 141.1 232.112 145.378L256.085 238.256L198.509 253.316L174.536 160.438Z" fill="#FFE7D1"/>
<path d="M20.0755 187.089C18.9713 182.811 21.5413 178.437 25.8158 177.318L75.1091 164.425C79.3835 163.307 83.7438 165.869 84.848 170.147L112.145 275.905L47.3727 292.847L20.0755 187.089Z" fill="#FFE7D1"/>
<rect width="16.5313" height="19.1216" rx="4" transform="matrix(0.967453 -0.25305 0.24992 0.968267 80.123 105.538)" fill="#F5C498"/>
<rect width="16.5313" height="19.1216" rx="4" transform="matrix(0.967453 -0.25305 0.24992 0.968267 104.113 99.2632)" fill="#F5C498"/>
<rect width="16.5313" height="19.1216" rx="4" transform="matrix(0.967453 -0.25305 0.24992 0.968267 128.104 92.9883)" fill="#F5C498"/>
<rect width="16.5313" height="19.1216" rx="4" transform="matrix(0.967453 -0.25305 0.24992 0.968267 87.3945 133.713)" fill="#F5C498"/>
<rect width="16.5313" height="19.1216" rx="4" transform="matrix(0.967453 -0.25305 0.24992 0.968267 111.385 127.437)" fill="#F5C498"/>
<rect width="16.5313" height="19.1216" rx="4" transform="matrix(0.967453 -0.25305 0.24992 0.968267 33.3906 187.528)" fill="#F5C498"/>
<rect width="16.5313" height="19.1216" rx="4" transform="matrix(0.967453 -0.25305 0.24992 0.968267 57.3809 181.254)" fill="#F5C498"/>
<rect width="16.5313" height="19.1216" rx="4" transform="matrix(0.967453 -0.25305 0.24992 0.968267 184.449 162.465)" fill="#F5C498"/>
<rect width="16.5313" height="19.1216" rx="4" transform="matrix(0.967453 -0.25305 0.24992 0.968267 208.439 156.191)" fill="#F5C498"/>
<rect width="16.5313" height="19.1216" rx="4" transform="matrix(0.967453 -0.25305 0.24992 0.968267 135.375 121.164)" fill="#F5C498"/>
<ellipse cx="373" cy="349.862" rx="373" ry="146.383" fill="#D7A37E"/>
<ellipse cx="373" cy="349.862" rx="373" ry="146.383" fill="url(#paint0_linear_39304_8249)"/>
<path d="M316.937 150.284C319.933 167.09 339.589 169.137 349.577 168.598L372.586 201.456C372.229 205.047 360.125 220.524 315.606 204.149C264.773 185.452 272.575 140.281 286.437 134.124C304.63 126.044 313.191 129.276 316.937 150.284Z" fill="#222327"/>
<path d="M484.252 117.253C484.252 159.694 443.35 175.47 387.557 175.47C331.764 175.47 291.787 159.694 291.787 117.253C291.787 67.8846 331.764 24.1051 387.557 24.1051C443.35 24.1051 484.252 64.1587 484.252 117.253Z" fill="white"/>
<path d="M336.734 224.82C336.734 206.733 343.247 179.442 349.041 168.058H429.84C435.464 178.16 440.939 203.655 440.53 224.82C440.019 251.277 412.92 253.201 387.865 254.163C362.811 255.125 336.734 247.429 336.734 224.82Z" fill="white"/>
<path d="M346.696 259.427C341.551 249.935 336.735 244.548 336.735 221.386L370.911 231.34C376.302 231.251 387.375 233.214 388.537 241.774C389.99 252.475 385.119 265.718 382.786 267.299C380.919 268.563 374.481 268.284 371.495 267.986L360.031 265.808C355.83 267.742 351.342 267.999 346.696 259.427Z" fill="white"/>
<path d="M430.499 259.427C435.644 249.935 440.46 244.548 440.46 221.386L406.285 231.34C400.893 231.251 389.82 233.214 388.658 241.774C387.206 252.475 392.076 265.718 394.409 267.299C396.276 268.563 402.715 268.284 405.701 267.986L417.164 265.808C421.365 267.742 425.854 267.999 430.499 259.427Z" fill="white"/>
<path d="M349.316 172.368L346.105 171.83L343.43 178.832L343.965 182.603L349.316 172.368Z" fill="#222327"/>
<path d="M383.823 266.542C383.823 271.363 379.607 273.635 366.486 273.635C353.365 273.635 345.297 271.909 345.297 267.088C345.297 262.267 346.153 256.937 364.025 256.937C377.146 256.937 383.823 261.721 383.823 266.542Z" fill="white"/>
<path d="M394.525 266.542C394.525 271.363 398.74 273.635 411.861 273.635C424.982 273.635 433.051 271.909 433.051 267.088C433.051 262.267 432.195 256.937 414.323 256.937C401.202 256.937 394.525 261.721 394.525 266.542Z" fill="white"/>
<rect width="38.5609" height="49.3747" rx="19.2804" transform="matrix(0.92957 -0.368645 0.364428 0.931231 413.189 175.224)" fill="#222327"/>
<path d="M384.871 26.1173C388.433 38.4682 379.014 52.0778 368.217 55.2336C357.42 58.3893 342.67 51.8442 339.107 39.4932C335.545 27.1422 343.023 10.0292 353.82 6.87344C368.217 2.66543 381.308 13.7663 384.871 26.1173Z" fill="#222327"/>
<path d="M390.805 26.1173C387.243 38.4682 396.662 52.0778 407.459 55.2336C418.256 58.3893 433.006 51.8442 436.569 39.4932C440.131 27.1422 432.653 10.0292 421.856 6.87344C407.459 2.66543 394.367 13.7663 390.805 26.1173Z" fill="#222327"/>
<path d="M456.492 116.537C456.492 147.617 426.406 159.17 385.366 159.17C344.326 159.17 314.92 147.617 314.92 116.537C314.92 80.384 344.326 48.324 385.366 48.324C426.406 48.324 456.492 77.6555 456.492 116.537Z" fill="#F3D6DD"/>
<path d="M371.222 110.146C371.222 120.434 364.639 131.722 355.441 131.722C346.242 131.722 331.383 123.338 331.383 107.969C331.383 93.5309 347.435 88.396 364.023 91.0326C374.19 92.6486 371.222 99.8568 371.222 110.146Z" fill="#222327"/>
<path d="M363.526 109.105C363.526 110.648 363.064 111.9 360.751 111.9C358.437 111.9 357.975 110.648 357.975 109.105C357.975 107.562 358.9 106.311 360.751 106.311C362.601 106.311 363.526 107.562 363.526 109.105Z" fill="white"/>
<path d="M399.206 110.145C399.206 120.434 405.788 131.721 414.987 131.721C424.185 131.721 439.045 123.338 439.045 107.969C439.045 93.5307 422.992 88.3959 406.405 91.0325C396.238 92.6484 399.206 99.8566 399.206 110.145Z" fill="#222327"/>
<path d="M406.903 109.105C406.903 110.649 407.366 111.9 409.679 111.9C411.992 111.9 412.455 110.649 412.455 109.105C412.455 107.562 411.53 106.311 409.679 106.311C407.829 106.311 406.903 107.562 406.903 109.105Z" fill="white"/>
<path d="M374.726 124.949C374.12 124.063 372.911 123.835 372.025 124.44C371.139 125.045 370.911 126.254 371.517 127.14L374.726 124.949ZM384.893 122.813L386.732 122.185C386.463 121.398 385.724 120.87 384.893 120.87C384.062 120.87 383.323 121.398 383.054 122.185L384.893 122.813ZM398.269 127.14C398.875 126.254 398.647 125.045 397.761 124.44C396.875 123.835 395.666 124.063 395.06 124.949L398.269 127.14ZM371.517 127.14C372.022 127.881 372.936 128.867 374.16 129.682C375.395 130.504 377.052 131.219 379.007 131.219V127.333C378.019 127.333 377.101 126.971 376.313 126.447C375.513 125.915 374.955 125.285 374.726 124.949L371.517 127.14ZM379.007 131.219C381.441 131.219 383.234 129.48 384.331 128.019C385.495 126.47 386.315 124.659 386.732 123.44L383.054 122.185C382.735 123.121 382.084 124.541 381.224 125.685C380.298 126.919 379.516 127.333 379.007 127.333V131.219ZM383.054 123.44C383.471 124.659 384.291 126.47 385.455 128.019C386.552 129.48 388.345 131.219 390.779 131.219V127.333C390.27 127.333 389.488 126.919 388.562 125.685C387.702 124.541 387.051 123.121 386.732 122.185L383.054 123.44ZM390.779 131.219C392.734 131.219 394.391 130.504 395.626 129.682C396.85 128.867 397.764 127.881 398.269 127.14L395.06 124.949C394.831 125.285 394.273 125.915 393.473 126.447C392.685 126.971 391.767 127.333 390.779 127.333V131.219Z" fill="#222327"/>
<path d="M394.693 121.151C394.693 122.635 388.095 124.52 385.774 125.137C385.249 125.277 384.706 125.277 384.181 125.137C381.86 124.52 375.262 122.635 375.262 121.151C375.262 119.351 380.634 117.425 384.977 117.425C389.321 117.425 394.693 119.351 394.693 121.151Z" fill="#222327"/>
<path d="M383.821 73.2567C356.822 73.2567 346.9 63.7405 345.295 58.1744L358.137 44.1694L385.962 39.3215L424.488 58.1744C422.169 62.6632 410.85 73.2567 383.821 73.2567Z" fill="#222327"/>
<path fill-rule="evenodd" clip-rule="evenodd" d="M387.557 175.603C443.35 175.603 484.252 159.827 484.252 117.386C484.252 64.2918 443.35 24.2382 387.557 24.2382C331.764 24.2382 291.787 68.0177 291.787 117.386C291.787 159.827 331.764 175.603 387.557 175.603ZM385.366 159.302C426.406 159.302 456.492 147.749 456.492 116.669C456.492 77.7875 426.406 48.4559 385.366 48.4559C344.326 48.4559 314.92 80.516 314.92 116.669C314.92 147.749 344.326 159.302 385.366 159.302Z" fill="white"/>
<path fill-rule="evenodd" clip-rule="evenodd" d="M431.253 172.367C418.32 175.216 403.551 176.512 387.558 176.512C372.948 176.512 359.423 175.43 347.416 173.071C342.095 185.882 336.736 209.862 336.736 226.269C336.736 248.878 362.813 256.574 387.867 255.612C412.922 254.65 440.021 252.726 440.532 226.269C440.907 206.882 436.344 183.862 431.253 172.367Z" fill="white"/>
<path fill-rule="evenodd" clip-rule="evenodd" d="M336.734 220.887C347.702 224.844 364.526 228.037 388.526 227.312C409.244 226.686 426.787 224.101 440.426 221.069C440.152 202.636 435.874 181.981 431.139 171.291C418.206 174.14 403.437 175.436 387.445 175.436C372.835 175.436 359.309 174.355 347.302 171.995C342.431 183.725 337.528 204.817 336.734 220.887Z" fill="#222327"/>
<path d="M410.577 202.533C413.029 180.353 424.224 174.084 434.747 171.032C439.028 169.79 445.984 169.954 449.73 171.57C454.264 173.527 459.361 177.496 463.107 186.653C466.853 195.81 471.576 209.535 473.717 223.54L473.745 223.727C475.887 237.736 479.152 259.091 436.535 259.091C401.423 259.091 408.344 222.722 410.577 202.533Z" fill="#3786E2"/>
<path d="M429.012 216.844C418.831 211.178 415.125 198.306 420.733 188.094L421.241 187.17C425.923 178.645 435.811 174.464 445.173 177.049C458.205 180.648 464.566 195.472 458.207 207.424L456.765 210.132C451.618 219.505 439.871 222.887 430.527 217.687L429.012 216.844Z" fill="#222327"/>
<path d="M343.43 188.528C341.718 190.683 339.328 204.508 338.079 210.613C337.544 210.613 334.334 209.715 333.799 209.536C333.263 203.072 338.079 188.528 343.43 188.528Z" fill="#1A1A1C"/>
<rect x="370.721" y="180.988" width="5.35087" height="16.1596" rx="2.67543" fill="white"/>
<path fill-rule="evenodd" clip-rule="evenodd" d="M370.721 193.915V194.472C370.721 195.95 371.919 197.148 373.396 197.148C374.874 197.148 376.072 195.95 376.072 194.472V193.915H370.721Z" fill="#256FC5"/>
<rect x="397.475" y="180.988" width="5.35087" height="16.1596" rx="2.67543" fill="white"/>
<path fill-rule="evenodd" clip-rule="evenodd" d="M397.475 193.915V194.472C397.475 195.95 398.672 197.148 400.15 197.148C401.628 197.148 402.825 195.95 402.825 194.472V193.915H397.475Z" fill="#256FC5"/>
<path d="M387.842 257.476C386.237 269.865 381.956 272.02 377.676 272.558L379.281 262.324C381.421 259.451 388.673 251.067 387.842 257.476Z" fill="white"/>
<path d="M388.98 257.678C390.585 270.067 395.335 273.366 404.967 273.366L397.541 262.526C395.401 259.653 388.15 251.269 388.98 257.678Z" fill="white"/>
<path fill-rule="evenodd" clip-rule="evenodd" d="M452.44 233.267C453.74 234.76 454.48 236.754 454.666 239.113C455.026 243.702 450.708 245.762 444.636 246.245C438.563 246.728 434.078 245.369 433.718 240.78C433.549 238.622 433.939 236.597 434.931 234.912C434.731 234.683 434.568 234.419 434.457 234.123C433.891 232.616 434.657 230.405 435.974 229.904C437.387 229.366 438.791 230.073 439.581 231.154C440.686 230.742 441.953 230.465 443.388 230.351C444.783 230.24 446.048 230.29 447.184 230.485C447.734 229.169 449.087 228.087 450.673 228.417C452.052 228.703 453.154 230.766 452.83 232.344C452.761 232.682 452.625 232.992 452.44 233.267Z" fill="#2D68AE"/>
<path d="M442.628 238.687C442.732 240.018 442.029 241.544 440.885 241.635C439.742 241.726 437.81 240.788 437.653 238.8C437.507 236.932 439.45 236.108 441.539 236.285C442.819 236.394 442.523 237.356 442.628 238.687Z" fill="#3475C2"/>
<path d="M440.474 238.658C440.495 238.919 440.589 239.124 440.98 239.093C441.371 239.062 441.433 238.844 441.412 238.584C441.392 238.323 441.219 238.124 440.906 238.149C440.593 238.174 440.454 238.398 440.474 238.658Z" fill="white"/>
<path d="M445.542 238.455C445.646 239.786 446.579 241.182 447.723 241.091C448.866 241 450.628 239.768 450.472 237.779C450.325 235.911 448.277 235.406 446.242 235.911C444.995 236.221 445.437 237.124 445.542 238.455Z" fill="#3475C2"/>
<path d="M447.664 238.087C447.685 238.348 447.623 238.565 447.233 238.597C446.842 238.628 446.747 238.423 446.727 238.162C446.706 237.901 446.846 237.677 447.158 237.652C447.471 237.627 447.644 237.826 447.664 238.087Z" fill="white"/>
<rect width="23.965" height="44.0725" rx="6" transform="matrix(0.984609 0.174771 -0.172533 0.985004 550.975 187.465)" fill="#DC9759"/>
<ellipse cx="38.0135" cy="38.2516" rx="38.0135" ry="38.2516" transform="matrix(0.984609 0.174771 -0.172533 0.985004 535.076 129.747)" fill="#54B858"/>
<ellipse cx="38.0135" cy="38.2516" rx="38.0135" ry="38.2516" transform="matrix(0.984609 0.174771 -0.172533 0.985004 535.076 129.747)" fill="url(#paint1_linear_39304_8249)"/>
<rect width="23.9789" height="44.0472" rx="6" transform="matrix(0.938958 0.344031 -0.340018 0.940419 648.9 211.825)" fill="#DC9759"/>
<ellipse cx="38.0355" cy="38.2296" rx="38.0355" ry="38.2296" transform="matrix(0.938958 0.344031 -0.340018 0.940419 643.201 152.206)" fill="#54B858"/>
<ellipse cx="38.0355" cy="38.2296" rx="38.0355" ry="38.2296" transform="matrix(0.938958 0.344031 -0.340018 0.940419 643.201 152.206)" fill="url(#paint2_linear_39304_8249)"/>
</g>
<defs>
<linearGradient id="paint0_linear_39304_8249" x1="373" y1="203.479" x2="373" y2="496.245" gradientUnits="userSpaceOnUse">
<stop stop-color="#E18745"/>
<stop offset="1" stop-color="#D7A37E" stop-opacity="0"/>
</linearGradient>
<linearGradient id="paint1_linear_39304_8249" x1="38.0135" y1="0" x2="38.0135" y2="76.5031" gradientUnits="userSpaceOnUse">
<stop stop-color="#32A737"/>
<stop offset="1" stop-color="#54B858" stop-opacity="0"/>
</linearGradient>
<linearGradient id="paint2_linear_39304_8249" x1="38.0355" y1="0" x2="38.0355" y2="76.4593" gradientUnits="userSpaceOnUse">
<stop stop-color="#32A737"/>
<stop offset="1" stop-color="#54B858" stop-opacity="0"/>
</linearGradient>
<clipPath id="clip0_39304_8249">
<rect width="746" height="340" fill="white"/>
</clipPath>
</defs>
</svg>
