<svg width="746" height="397" viewBox="0 0 746 397" fill="none" xmlns="http://www.w3.org/2000/svg">
<g clip-path="url(#clip0_39304_5817)">
<ellipse cx="373" cy="404.742" rx="373" ry="202.153" fill="#E3A578"/>
<ellipse cx="373" cy="404.742" rx="373" ry="202.153" fill="url(#paint0_linear_39304_5817)"/>
<path d="M216.788 309.368C208.101 311.039 203.562 304.774 202.17 302.268L219.712 285.144L229.736 294.75C231.407 298.509 228.483 307.119 216.788 309.368Z" fill="white"/>
<path d="M165.618 72.6588C170.093 84.2188 162.124 98.0785 151.951 102.016C141.779 105.954 126.974 100.909 122.499 89.3492C118.025 77.7892 123.824 60.7285 133.997 56.7908C147.562 51.54 161.143 61.0987 165.618 72.6588Z" fill="#222327"/>
<path d="M171.354 72.16C168.942 84.3189 179.183 96.5951 189.883 98.7177C200.582 100.84 214.294 93.3158 216.706 81.1569C219.118 68.9979 210.461 53.1945 199.761 51.0719C185.493 48.2415 173.766 60.001 171.354 72.16Z" fill="#222327"/>
<path d="M276.535 160.807C276.535 201.714 236.849 216.919 182.716 216.919C128.582 216.919 89.7949 201.714 89.7949 160.807C89.7949 113.225 128.582 71.0286 182.716 71.0286C236.849 71.0286 276.535 109.633 276.535 160.807Z" fill="white"/>
<path d="M145.146 264.486C145.146 247.053 150.748 220.749 155.732 209.776H225.23C230.068 219.513 234.777 244.086 234.425 264.486C233.986 289.986 210.676 291.84 189.126 292.767C167.576 293.695 145.146 286.277 145.146 264.486Z" fill="white"/>
<rect x="207.584" y="216.682" width="37.3803" height="47.6311" rx="18.6902" transform="rotate(-21.5019 207.584 216.682)" fill="#222327"/>
<path d="M206.292 303.553C196.194 300.973 189.211 300.855 172.872 285.642L202.488 267.911C205.99 264.024 214.696 257.45 221.503 262.247C230.011 268.243 236.133 280.399 235.706 283.095C235.364 285.251 230.91 289.64 228.726 291.565L219.61 298.274C218.196 302.528 215.41 305.884 206.292 303.553Z" fill="white"/>
<path d="M232.12 275.558C239.799 284.835 238.488 289.29 236.038 292.684L229.88 284.822C229.269 281.415 228.148 270.759 232.12 275.558Z" fill="white"/>
<path d="M217.399 289.305C216.568 290.551 199.574 299.515 195.594 301.246C196.113 302.284 203.197 301.402 208.054 299.169C213.554 296.64 218.437 287.747 217.399 289.305Z" fill="#F2F2F2"/>
<path d="M156.313 273.459C162.121 265.076 164.69 258.651 183.676 249.243L188.622 283.357C190.762 288.064 193.399 298.604 186.827 303.104C178.613 308.729 165.89 309.822 163.7 308.411C161.948 307.282 159.707 301.504 158.806 298.756L156.196 287.784C153 284.873 151.068 281.028 156.313 273.459Z" fill="white"/>
<path d="M169.717 309.281C158.232 312.9 153.406 310.061 149.468 301.586L161.979 303.717C165.365 304.433 175.659 307.408 169.717 309.281Z" fill="white"/>
<path d="M213.137 277.008C218.68 296.559 207.704 302.081 163.187 310.921L165.449 291.816L186.824 277.008C200.193 269.36 210.536 267.829 213.137 277.008Z" fill="white"/>
<path d="M167.032 310.447C159.935 313.745 152.468 311.176 147.103 299.631C141.738 288.086 142.094 278.705 149.191 275.406C156.289 272.108 163.646 270.89 170.953 286.615C176.318 298.16 178.011 305.345 167.032 310.447Z" fill="white"/>
<path d="M161.005 305.609C157.735 306.698 152.648 302.869 151.043 298.05C149.14 292.338 149.599 287.76 153.828 286.352C157.62 285.089 163.471 285.094 166.062 292.875C167.965 298.587 166.579 303.752 161.005 305.609Z" fill="#222327"/>
<path fill-rule="evenodd" clip-rule="evenodd" d="M145.064 263.729C154.934 265.964 167.838 267.382 184.234 266.884C204.064 266.282 220.861 263.799 233.931 260.886C233.698 243.115 230.035 223.197 225.979 212.89C214.907 215.636 202.262 216.885 188.57 216.885C176.061 216.885 164.481 215.843 154.2 213.569C149.751 225.63 145.27 247.961 145.064 263.729Z" fill="#222327"/>
<path d="M205.05 243.002C207.43 221.624 218.292 215.582 228.502 212.64C232.656 211.444 239.405 211.602 243.039 213.16C247.438 215.045 252.384 218.871 256.018 227.696C259.652 236.522 264.236 249.751 266.312 263.249L266.34 263.43C268.418 276.932 271.586 297.515 230.237 297.515C196.169 297.515 202.884 262.461 205.05 243.002Z" fill="#3786E2"/>
<path d="M222.936 256.796C213.058 251.335 209.478 238.901 214.939 229.023L215.362 228.257C219.924 220.006 229.541 215.951 238.633 218.445C251.273 221.913 257.419 236.223 251.23 247.777L249.864 250.328C244.87 259.361 233.498 262.636 224.464 257.641L222.936 256.796Z" fill="#222327"/>
<path d="M233.635 271.404C234.184 272.856 233.173 274.584 231.894 275.068C230.616 275.551 228.767 274.904 228.218 273.452C227.669 272 228.412 269.868 229.69 269.385C231.394 268.741 233.086 269.952 233.635 271.404Z" fill="#2D68AE"/>
<path d="M240.373 270.566C240.059 272.086 241.33 273.634 242.668 273.91C244.006 274.187 245.731 273.258 246.045 271.737C246.359 270.216 245.29 268.228 243.952 267.952C242.168 267.583 240.687 269.045 240.373 270.566Z" fill="#2D68AE"/>
<path d="M247.825 278.26C248.175 282.683 243.986 284.668 238.094 285.134C232.202 285.6 227.851 284.289 227.501 279.866C227.094 274.722 230.009 270.358 236.883 269.815C243.757 269.271 247.388 272.727 247.825 278.26Z" fill="#2D68AE"/>
<path d="M236.144 277.85C236.246 279.133 235.563 280.604 234.454 280.691C233.344 280.779 231.47 279.875 231.318 277.958C231.176 276.158 233.061 275.365 235.088 275.535C236.33 275.64 236.043 276.567 236.144 277.85Z" fill="#3475C2"/>
<path d="M234.054 277.823C234.074 278.074 234.165 278.272 234.545 278.242C234.924 278.212 234.984 278.002 234.964 277.751C234.944 277.499 234.776 277.308 234.473 277.332C234.169 277.356 234.034 277.571 234.054 277.823Z" fill="white"/>
<path d="M238.972 277.625C239.074 278.909 239.979 280.253 241.088 280.166C242.198 280.078 243.907 278.891 243.756 276.974C243.613 275.174 241.626 274.686 239.652 275.173C238.442 275.472 238.871 276.342 238.972 277.625Z" fill="#3475C2"/>
<path d="M241.032 277.271C241.052 277.522 240.992 277.732 240.613 277.762C240.234 277.792 240.142 277.594 240.122 277.343C240.102 277.091 240.238 276.876 240.541 276.852C240.844 276.828 241.012 277.019 241.032 277.271Z" fill="white"/>
<path d="M251.06 160.335C251.06 190.322 223.256 201.469 185.33 201.469C147.403 201.469 120.229 190.322 120.229 160.335C120.229 125.453 147.403 94.5198 185.33 94.5198C223.256 94.5198 251.06 122.82 251.06 160.335Z" fill="#F3D6DD"/>
<path d="M181.747 156.154C181.747 166.071 175.7 176.95 167.249 176.95C158.799 176.95 145.148 168.87 145.148 154.056C145.148 140.141 159.895 135.191 175.133 137.733C184.473 139.29 181.747 146.238 181.747 156.154Z" fill="#222327"/>
<path d="M174.676 155.152C174.676 156.639 174.251 157.845 172.126 157.845C170.001 157.845 169.576 156.639 169.576 155.152C169.576 153.664 170.426 152.458 172.126 152.458C173.826 152.458 174.676 153.664 174.676 155.152Z" fill="white"/>
<path d="M206.754 156.154C206.754 166.071 212.359 176.95 220.191 176.95C228.023 176.95 240.676 168.87 240.676 154.056C240.676 140.141 227.007 135.191 212.883 137.733C204.227 139.29 206.754 146.238 206.754 156.154Z" fill="#222327"/>
<path d="M213.306 155.152C213.306 156.639 213.7 157.845 215.67 157.845C217.639 157.845 218.033 156.639 218.033 155.152C218.033 153.664 217.245 152.458 215.67 152.458C214.094 152.458 213.306 153.664 213.306 155.152Z" fill="white"/>
<path d="M185.105 170.422C184.521 169.574 183.361 169.359 182.512 169.942C181.663 170.525 181.449 171.686 182.032 172.535L185.105 170.422ZM194.99 168.364L196.753 167.757C196.495 167.005 195.786 166.499 194.99 166.499C194.194 166.499 193.486 167.005 193.227 167.757L194.99 168.364ZM207.948 172.535C208.532 171.686 208.317 170.525 207.468 169.942C206.62 169.359 205.459 169.574 204.875 170.422L207.948 172.535ZM182.032 172.535C182.522 173.248 183.407 174.197 184.592 174.981C185.789 175.772 187.391 176.458 189.279 176.458V172.729C188.312 172.729 187.416 172.377 186.649 171.87C185.871 171.356 185.328 170.747 185.105 170.422L182.032 172.535ZM189.279 176.458C191.625 176.458 193.359 174.791 194.425 173.382C195.553 171.89 196.35 170.145 196.753 168.97L193.227 167.757C192.917 168.659 192.285 170.029 191.451 171.133C190.553 172.319 189.788 172.729 189.279 172.729V176.458ZM193.227 168.97C193.631 170.145 194.427 171.89 195.555 173.382C196.621 174.791 198.355 176.458 200.701 176.458V172.729C200.192 172.729 199.427 172.319 198.53 171.133C197.695 170.029 197.063 168.659 196.753 167.757L193.227 168.97ZM200.701 176.458C202.589 176.458 204.191 175.772 205.388 174.981C206.573 174.197 207.458 173.248 207.948 172.535L204.875 170.422C204.652 170.747 204.109 171.356 203.331 171.87C202.565 172.377 201.668 172.729 200.701 172.729V176.458Z" fill="#222327"/>
<path d="M204.498 166.763C204.498 168.196 198.071 170.017 195.83 170.609C195.33 170.741 194.813 170.741 194.312 170.609C192.072 170.017 185.645 168.196 185.645 166.763C185.645 165.028 190.857 163.172 195.071 163.172C199.286 163.172 204.498 165.028 204.498 166.763Z" fill="#222327"/>
<path d="M196.455 119.115C156.387 121.635 146.614 108.844 145.148 103.448L167.625 90.9137L193.034 86.2134L228.216 104.492C226.098 108.844 221.094 117.566 196.455 119.115Z" fill="#222327"/>
<path fill-rule="evenodd" clip-rule="evenodd" d="M187.572 217.048C238.903 217.048 276.534 201.842 276.534 160.936C276.534 109.762 238.903 71.1575 187.572 71.1575C136.241 71.1575 99.4609 113.353 99.4609 160.936C99.4609 201.842 136.241 217.048 187.572 217.048ZM185.557 201.337C223.315 201.337 250.995 190.202 250.995 160.246C250.995 122.771 223.315 94.5002 185.557 94.5002C147.798 94.5002 120.744 125.401 120.744 160.246C120.744 190.202 147.798 201.337 185.557 201.337Z" fill="white"/>
<path d="M129.053 195.239C138.267 209.05 150.858 213.41 159.684 216.006L180.649 244.331C180.303 247.792 168.559 262.71 125.364 246.927C76.0424 228.906 83.6129 185.368 97.0621 179.435C114.714 171.647 122.625 185.604 129.053 195.239Z" fill="#222327"/>
<rect x="166.379" y="222.235" width="5.19171" height="15.5751" rx="2.59585" fill="white"/>
<path fill-rule="evenodd" clip-rule="evenodd" d="M166.379 234.695V235.214C166.379 236.648 167.541 237.81 168.975 237.81C170.408 237.81 171.571 236.648 171.571 235.214V234.695H166.379Z" fill="#256FC5"/>
<rect x="190.834" y="222.235" width="5.19171" height="15.5751" rx="2.59585" fill="white"/>
<path fill-rule="evenodd" clip-rule="evenodd" d="M190.834 234.695V235.214C190.834 236.648 191.996 237.81 193.43 237.81C194.863 237.81 196.026 236.648 196.026 235.214V234.695H190.834Z" fill="#256FC5"/>
<path d="M152.023 281.057C152.752 280.786 153.65 281.392 154.029 282.41C154.407 283.428 154.714 284.254 153.394 284.745C152.074 285.235 151.767 284.41 151.389 283.391C151.01 282.373 151.294 281.328 152.023 281.057Z" fill="#222327"/>
<path d="M148.327 282.96C148.979 282.537 149.987 282.933 150.578 283.844C151.169 284.756 151.649 285.495 150.467 286.261C149.285 287.027 148.806 286.288 148.215 285.376C147.624 284.465 147.674 283.383 148.327 282.96Z" fill="#222327"/>
<path d="M156.454 279.984C155.676 280.012 155.078 280.915 155.118 282.001C155.157 283.087 155.189 283.967 156.597 283.916C158.004 283.865 157.972 282.984 157.932 281.899C157.893 280.813 157.231 279.956 156.454 279.984Z" fill="#222327"/>
<path d="M534.344 324.405C543.032 326.075 547.571 319.81 548.963 317.304L531.421 300.18L521.397 309.786C519.726 313.545 522.65 322.156 534.344 324.405Z" fill="white"/>
<path d="M585.515 87.6951C581.04 99.2552 589.009 113.115 599.181 117.053C609.354 120.99 624.159 115.946 628.633 104.386C633.108 92.8255 627.308 75.7649 617.136 71.8271C603.571 66.5764 589.99 76.1351 585.515 87.6951Z" fill="#222327"/>
<path d="M579.779 87.1961C582.191 99.355 571.95 111.631 561.25 113.754C550.55 115.876 536.839 108.352 534.427 96.193C532.015 84.0341 540.672 68.2306 551.372 66.108C565.64 63.2776 577.367 75.0372 579.779 87.1961Z" fill="#222327"/>
<path d="M474.6 175.843C474.6 216.75 514.286 231.955 568.419 231.955C622.552 231.955 661.34 216.75 661.34 175.843C661.34 128.261 622.552 86.0647 568.419 86.0647C514.286 86.0647 474.6 124.67 474.6 175.843Z" fill="white"/>
<path d="M605.984 279.521C605.984 262.088 600.383 235.785 595.399 224.812H525.901C521.063 234.548 516.354 259.121 516.706 279.521C517.145 305.021 540.455 306.876 562.005 307.803C583.555 308.73 605.984 301.312 605.984 279.521Z" fill="white"/>
<rect width="37.3803" height="47.6311" rx="18.6902" transform="matrix(-0.930405 -0.366532 -0.366532 0.930405 543.551 231.718)" fill="#222327"/>
<path d="M544.841 318.59C554.938 316.009 561.922 315.891 578.261 300.679L548.645 282.947C545.143 279.06 536.437 272.486 529.63 277.283C521.122 283.279 514.999 295.436 515.427 298.131C515.769 300.287 520.223 304.676 522.407 306.601L531.523 313.311C532.936 317.564 535.723 320.92 544.841 318.59Z" fill="white"/>
<path d="M519.012 290.595C511.334 299.872 512.644 304.327 515.095 307.72L521.253 299.859C521.864 296.452 522.985 285.796 519.012 290.595Z" fill="white"/>
<path d="M533.734 304.341C534.565 305.587 551.559 314.551 555.539 316.282C555.02 317.32 547.935 316.438 543.079 314.205C537.579 311.677 532.696 302.784 533.734 304.341Z" fill="#F2F2F2"/>
<path d="M594.822 288.494C589.014 280.112 586.445 273.686 567.459 264.278L562.513 298.392C560.373 303.1 557.736 313.64 564.307 318.139C572.521 323.764 585.244 324.858 587.435 323.447C589.187 322.318 591.427 316.539 592.328 313.791L594.938 302.819C598.135 299.909 600.066 296.063 594.822 288.494Z" fill="white"/>
<path d="M581.42 324.317C592.905 327.937 597.731 325.098 601.669 316.623L589.158 318.753C585.771 319.47 575.478 322.445 581.42 324.317Z" fill="white"/>
<path d="M537.999 292.045C532.457 311.596 543.433 317.117 587.949 325.958L585.688 306.853L564.312 292.045C550.944 284.397 540.601 282.866 537.999 292.045Z" fill="white"/>
<path d="M584.102 325.483C591.2 328.781 598.667 326.213 604.032 314.668C609.397 303.122 609.041 293.741 601.943 290.443C594.846 287.144 587.489 285.926 580.182 301.651C574.816 313.196 573.124 320.381 584.102 325.483Z" fill="white"/>
<path d="M590.13 320.645C593.4 321.734 598.487 317.906 600.092 313.086C601.995 307.374 601.536 302.796 597.307 301.388C593.515 300.125 587.664 300.13 585.072 307.911C583.17 313.623 584.556 318.788 590.13 320.645Z" fill="#222327"/>
<path fill-rule="evenodd" clip-rule="evenodd" d="M606.07 278.765C596.201 281 583.296 282.418 566.9 281.921C547.071 281.319 530.274 278.836 517.204 275.923C517.437 258.152 521.1 238.233 525.155 227.927C536.228 230.673 548.873 231.922 562.565 231.922C575.074 231.922 586.654 230.879 596.935 228.605C601.384 240.666 605.865 262.997 606.07 278.765Z" fill="#222327"/>
<path d="M546.084 258.038C543.705 236.661 532.843 230.619 522.633 227.677C518.479 226.48 511.73 226.638 508.096 228.196C503.696 230.082 498.751 233.907 495.117 242.733C491.482 251.559 486.899 264.787 484.822 278.286L484.795 278.466C482.717 291.968 479.549 312.551 520.898 312.551C554.966 312.551 548.25 277.497 546.084 258.038Z" fill="#3786E2"/>
<path d="M528.197 271.832C538.075 266.371 541.655 253.936 536.194 244.058L535.77 243.292C531.209 235.042 521.592 230.987 512.5 233.481C499.859 236.948 493.714 251.258 499.903 262.812L501.269 265.363C506.263 274.397 517.635 277.671 526.669 272.677L528.197 271.832Z" fill="#222327"/>
<path d="M517.5 286.44C516.951 287.893 517.962 289.621 519.24 290.104C520.518 290.587 522.368 289.941 522.917 288.488C523.466 287.036 522.723 284.905 521.445 284.422C519.741 283.777 518.049 284.988 517.5 286.44Z" fill="#2D68AE"/>
<path d="M510.76 285.602C511.074 287.122 509.803 288.67 508.465 288.947C507.127 289.223 505.402 288.294 505.088 286.773C504.774 285.253 505.843 283.265 507.181 282.988C508.965 282.62 510.446 284.081 510.76 285.602Z" fill="#2D68AE"/>
<path d="M503.307 293.296C502.958 297.719 507.147 299.704 513.039 300.17C518.931 300.636 523.282 299.326 523.632 294.903C524.039 289.758 521.124 285.395 514.25 284.851C507.376 284.308 503.745 287.763 503.307 293.296Z" fill="#2D68AE"/>
<path d="M514.988 292.886C514.887 294.17 515.57 295.64 516.679 295.728C517.788 295.815 519.663 294.912 519.815 292.995C519.957 291.194 518.072 290.401 516.045 290.572C514.803 290.676 515.09 291.603 514.988 292.886Z" fill="#3475C2"/>
<path d="M517.077 292.859C517.057 293.11 516.965 293.308 516.586 293.278C516.207 293.248 516.147 293.038 516.167 292.787C516.187 292.536 516.355 292.344 516.658 292.368C516.961 292.392 517.097 292.608 517.077 292.859Z" fill="white"/>
<path d="M512.161 292.662C512.059 293.945 511.154 295.29 510.045 295.202C508.935 295.114 507.226 293.927 507.377 292.01C507.52 290.21 509.506 289.723 511.481 290.21C512.691 290.508 512.262 291.379 512.161 292.662Z" fill="#3475C2"/>
<path d="M510.101 292.307C510.081 292.558 510.141 292.768 510.52 292.798C510.899 292.828 510.991 292.63 511.011 292.379C511.031 292.128 510.895 291.912 510.592 291.888C510.289 291.864 510.121 292.056 510.101 292.307Z" fill="white"/>
<path d="M500.075 175.372C500.075 205.359 527.879 216.506 565.805 216.506C603.731 216.506 630.906 205.359 630.906 175.372C630.906 140.49 603.731 109.557 565.805 109.557C527.879 109.557 500.075 137.857 500.075 175.372Z" fill="#F3D6DD"/>
<path d="M569.388 171.19C569.388 181.107 575.435 191.986 583.885 191.986C592.336 191.986 605.986 183.906 605.986 169.092C605.986 155.177 591.24 150.228 576.001 152.769C566.662 154.326 569.388 161.274 569.388 171.19Z" fill="#222327"/>
<path d="M544.381 171.19C544.381 181.107 538.776 191.986 530.944 191.986C523.111 191.986 510.459 183.906 510.459 169.092C510.459 155.177 524.127 150.228 538.251 152.769C546.908 154.326 544.381 161.274 544.381 171.19Z" fill="#222327"/>
<path d="M566.032 185.458C566.615 184.61 567.776 184.395 568.625 184.978C569.473 185.562 569.688 186.722 569.105 187.571L566.032 185.458ZM556.147 183.4L554.383 182.794C554.642 182.041 555.35 181.535 556.147 181.535C556.943 181.535 557.651 182.041 557.91 182.794L556.147 183.4ZM543.188 187.571C542.605 186.722 542.82 185.562 543.669 184.978C544.517 184.395 545.678 184.61 546.261 185.458L543.188 187.571ZM569.105 187.571C568.615 188.284 567.729 189.233 566.544 190.017C565.348 190.808 563.746 191.494 561.857 191.494V187.765C562.825 187.765 563.721 187.413 564.488 186.906C565.266 186.392 565.808 185.784 566.032 185.458L569.105 187.571ZM561.857 191.494C559.511 191.494 557.778 189.827 556.712 188.418C555.583 186.926 554.787 185.181 554.383 184.006L557.91 182.794C558.22 183.695 558.851 185.065 559.686 186.169C560.583 187.355 561.348 187.765 561.857 187.765V191.494ZM557.91 184.006C557.506 185.181 556.71 186.926 555.581 188.418C554.516 189.827 552.782 191.494 550.436 191.494V187.765C550.945 187.765 551.71 187.355 552.607 186.169C553.442 185.065 554.073 183.695 554.383 182.794L557.91 184.006ZM550.436 191.494C548.548 191.494 546.945 190.808 545.749 190.017C544.564 189.233 543.679 188.284 543.188 187.571L546.261 185.458C546.485 185.784 547.027 186.392 547.805 186.906C548.572 187.413 549.468 187.765 550.436 187.765V191.494Z" fill="#222327"/>
<path d="M546.639 181.799C546.639 183.232 553.066 185.053 555.306 185.645C555.807 185.777 556.324 185.777 556.824 185.645C559.065 185.053 565.492 183.232 565.492 181.799C565.492 180.064 560.28 178.208 556.065 178.208C551.851 178.208 546.639 180.064 546.639 181.799Z" fill="#222327"/>
<path d="M554.682 134.151C594.75 136.67 604.522 123.88 605.988 118.484L583.511 105.95L558.102 101.249L522.921 119.528C525.038 123.88 530.042 132.602 554.682 134.151Z" fill="#222327"/>
<path fill-rule="evenodd" clip-rule="evenodd" d="M563.563 232.084C512.232 232.084 474.6 216.879 474.6 175.972C474.6 124.798 512.232 86.1936 563.563 86.1936C614.894 86.1936 651.674 128.39 651.674 175.972C651.674 216.879 614.894 232.084 563.563 232.084ZM565.579 216.373C527.821 216.373 500.141 205.238 500.141 175.282C500.141 137.807 527.821 109.536 565.579 109.536C603.337 109.536 630.392 140.437 630.392 175.282C630.392 205.238 603.337 216.373 565.579 216.373Z" fill="white"/>
<path d="M619.114 216.771C609.9 230.582 600.275 228.446 591.449 231.042L570.484 259.367C570.83 262.829 582.574 277.746 625.769 261.963C675.091 243.942 663.804 194.217 647.515 190.458C621.153 184.374 625.542 207.136 619.114 216.771Z" fill="#222327"/>
<rect width="5.19171" height="15.5751" rx="2.59585" transform="matrix(-1 0 0 1 584.754 237.272)" fill="white"/>
<path fill-rule="evenodd" clip-rule="evenodd" d="M584.754 249.731V250.25C584.754 251.684 583.592 252.846 582.158 252.846C580.724 252.846 579.562 251.684 579.562 250.25V249.731H584.754Z" fill="#256FC5"/>
<rect width="5.19171" height="15.5751" rx="2.59585" transform="matrix(-1 0 0 1 560.299 237.272)" fill="white"/>
<path fill-rule="evenodd" clip-rule="evenodd" d="M560.299 249.731V250.25C560.299 251.684 559.137 252.846 557.703 252.846C556.269 252.846 555.107 251.684 555.107 250.25V249.731H560.299Z" fill="#256FC5"/>
<path d="M599.109 296.093C598.38 295.822 597.482 296.428 597.104 297.446C596.725 298.465 596.418 299.29 597.739 299.781C599.059 300.271 599.365 299.446 599.744 298.428C600.123 297.409 599.838 296.364 599.109 296.093Z" fill="#222327"/>
<path d="M602.804 297.996C602.152 297.573 601.143 297.969 600.552 298.881C599.961 299.792 599.482 300.531 600.664 301.297C601.846 302.063 602.325 301.324 602.916 300.413C603.507 299.501 603.457 298.419 602.804 297.996Z" fill="#222327"/>
<path d="M594.677 295.02C595.454 295.048 596.053 295.951 596.013 297.037C595.974 298.122 595.942 299.003 594.534 298.952C593.127 298.9 593.159 298.02 593.198 296.934C593.238 295.849 593.9 294.991 594.677 295.02Z" fill="#222327"/>
<path d="M578.963 169.981C579.136 169.289 580.52 167.904 582.597 167.904C584.674 167.904 586.058 169.289 586.75 169.981" stroke="white" stroke-width="2.98324" stroke-linecap="round"/>
<path d="M540.023 169.981C539.85 169.289 538.466 167.904 536.389 167.904C534.313 167.904 532.928 169.289 532.236 169.981" stroke="white" stroke-width="2.98324" stroke-linecap="round"/>
<path fill-rule="evenodd" clip-rule="evenodd" d="M287.258 0C274.003 0 263.258 10.7452 263.258 24V59.5341C263.258 72.789 274.003 83.5341 287.258 83.5341H282.053V103.165L315.884 83.5341H400.479C413.734 83.5341 424.479 72.789 424.479 59.5341V24C424.479 10.7452 413.734 0 400.479 0H287.258Z" fill="#97C7FF"/>
<circle cx="304.19" cy="41.7666" r="20.8835" fill="#52A2FF"/>
<ellipse cx="304.19" cy="38.8429" rx="1.67068" ry="2.92369" fill="#1E86FF"/>
<ellipse cx="317.138" cy="39.2602" rx="1.25301" ry="2.50602" fill="#1E86FF"/>
<path fill-rule="evenodd" clip-rule="evenodd" d="M306.486 44.5024C306.277 50.0498 306.392 54.5707 310.038 54.7155C313.684 54.8603 316.105 50.4401 316.424 44.8971L306.486 44.5024Z" fill="#1E86FF"/>
<rect x="335.934" y="22.554" width="63.4859" height="7.51807" rx="3.75904" fill="#52A2FF"/>
<rect x="335.934" y="37.5901" width="42.6024" height="7.51807" rx="3.75904" fill="#52A2FF"/>
<rect x="335.934" y="52.6262" width="28.4016" height="7.51807" rx="3.75904" fill="#52A2FF"/>
<path fill-rule="evenodd" clip-rule="evenodd" d="M442.244 93.5576C455.499 93.5576 466.244 104.303 466.244 117.558V145.574C466.244 158.78 455.578 169.495 442.39 169.573H447.449V189.204L413.618 169.574H329.023C315.768 169.574 305.023 158.829 305.023 145.574V117.558C305.023 104.303 315.768 93.5576 329.023 93.5576H442.244Z" fill="#97C7FF"/>
<path d="M326.596 121.693C327.583 119.319 330.946 119.319 331.934 121.693L332.675 123.476C333.091 124.476 334.033 125.16 335.113 125.247L337.037 125.401C339.6 125.607 340.639 128.805 338.687 130.478L337.221 131.733C336.398 132.439 336.038 133.545 336.29 134.599L336.737 136.477C337.334 138.978 334.613 140.955 332.419 139.615L330.772 138.608C329.847 138.043 328.683 138.043 327.758 138.608L326.111 139.615C323.917 140.955 321.196 138.978 321.792 136.477L322.24 134.599C322.492 133.545 322.132 132.439 321.309 131.733L319.843 130.478C317.89 128.805 318.93 125.607 321.493 125.401L323.417 125.247C324.497 125.16 325.438 124.476 325.855 123.476L326.596 121.693Z" fill="#52A2FF"/>
<path d="M355.576 121.693C356.564 119.319 359.927 119.319 360.914 121.693L361.656 123.475C362.072 124.476 363.013 125.16 364.094 125.247L366.018 125.401C368.581 125.606 369.62 128.805 367.667 130.477L366.201 131.733C365.378 132.438 365.018 133.545 365.27 134.599L365.718 136.477C366.314 138.978 363.594 140.955 361.399 139.614L359.752 138.608C358.827 138.043 357.664 138.043 356.739 138.608L355.091 139.614C352.897 140.955 350.176 138.978 350.773 136.477L351.221 134.599C351.472 133.545 351.113 132.438 350.29 131.733L348.824 130.477C346.871 128.805 347.91 125.606 350.473 125.401L352.397 125.247C353.478 125.16 354.419 124.476 354.835 123.475L355.576 121.693Z" fill="#52A2FF"/>
<path d="M383.106 121.476C384.107 119.14 387.418 119.14 388.419 121.476L389.286 123.498C389.709 124.486 390.646 125.158 391.718 125.241L393.809 125.404C396.396 125.605 397.428 128.849 395.433 130.508L393.969 131.726C393.118 132.433 392.746 133.564 393.01 134.638L393.479 136.548C394.091 139.036 391.402 141.031 389.198 139.724L387.237 138.562C386.328 138.023 385.197 138.023 384.289 138.562L382.327 139.724C380.123 141.031 377.435 139.036 378.046 136.548L378.516 134.638C378.78 133.564 378.407 132.433 377.557 131.726L376.092 130.508C374.097 128.849 375.129 125.605 377.716 125.404L379.807 125.241C380.879 125.158 381.816 124.486 382.239 123.498L383.106 121.476Z" fill="#52A2FF"/>
<path d="M410.612 121.693C411.599 119.319 414.962 119.319 415.949 121.693L416.691 123.475C417.107 124.476 418.048 125.16 419.129 125.247L421.053 125.401C423.616 125.606 424.655 128.805 422.702 130.477L421.236 131.733C420.413 132.438 420.054 133.545 420.305 134.599L420.753 136.477C421.35 138.978 418.629 140.955 416.435 139.614L414.787 138.608C413.862 138.043 412.699 138.043 411.774 138.608L410.126 139.614C407.932 140.955 405.211 138.978 405.808 136.477L406.256 134.599C406.507 133.545 406.148 132.438 405.325 131.733L403.859 130.477C401.906 128.805 402.945 125.606 405.508 125.401L407.432 125.247C408.513 125.16 409.454 124.476 409.87 123.475L410.612 121.693Z" fill="#52A2FF"/>
<path d="M437.66 121.693C438.648 119.319 442.011 119.319 442.998 121.693L443.74 123.475C444.156 124.476 445.097 125.16 446.178 125.247L448.102 125.401C450.665 125.606 451.704 128.805 449.751 130.477L448.285 131.733C447.462 132.438 447.102 133.545 447.354 134.599L447.802 136.477C448.398 138.978 445.678 140.955 443.483 139.614L441.836 138.608C440.911 138.043 439.748 138.043 438.823 138.608L437.175 139.614C434.981 140.955 432.26 138.978 432.857 136.477L433.305 134.599C433.556 133.545 433.197 132.438 432.374 131.733L430.908 130.477C428.955 128.805 429.994 125.606 432.557 125.401L434.481 125.247C435.562 125.16 436.503 124.476 436.919 123.475L437.66 121.693Z" fill="#52A2FF"/>
</g>
<defs>
<linearGradient id="paint0_linear_39304_5817" x1="373" y1="202.59" x2="373" y2="606.895" gradientUnits="userSpaceOnUse">
<stop stop-color="#E18745"/>
<stop offset="1" stop-color="#D7A37E" stop-opacity="0"/>
</linearGradient>
<clipPath id="clip0_39304_5817">
<rect width="746" height="397" fill="white"/>
</clipPath>
</defs>
</svg>
