<svg width="21" height="18" viewBox="0 0 21 18" fill="none" xmlns="http://www.w3.org/2000/svg">
<path d="M3.33589 10.9676C3.11132 10.7705 2.93167 10.6124 2.8 10.4963V10.4275L2.5364 10.1638C1.49568 9.12314 0.9 7.74845 0.9 6.30024V6.11443C0.992203 3.30955 3.3878 1.00024 6.2 1.00024C6.61742 1.00024 7.17124 1.1454 7.72331 1.44267C8.2443 1.7232 8.70161 2.10599 9.00527 2.53288C9.447 3.47266 10.8087 3.45573 11.2173 2.48211C11.4689 2.04163 11.9099 1.6435 12.4384 1.34877C12.9898 1.04124 13.5395 0.900244 13.9 0.900244C16.794 0.900244 19.1075 3.19138 19.2 6.11396V6.30024C19.2 7.86326 18.5949 9.21734 17.5918 10.1368L17.3 10.4043V10.4696C17.1484 10.5981 16.9529 10.7667 16.7251 10.9648C16.2194 11.4046 15.5422 12.0002 14.8049 12.6501C14.5685 12.8585 14.3258 13.0724 14.0805 13.2887C12.7961 14.4214 11.4391 15.6181 10.519 16.4129C10.2542 16.6294 9.84581 16.6294 9.58102 16.4129C8.48271 15.4643 6.73879 13.9445 5.25475 12.6476C4.51131 11.9978 3.8337 11.4045 3.33589 10.9676Z" stroke="#6B7280" stroke-width="1.8"/>
</svg>
