<svg width="153" height="51" viewBox="0 0 153 51" fill="none" xmlns="http://www.w3.org/2000/svg">
<rect y="5.01685" width="40" height="40.1354" rx="11.1782" fill="#3692FF"/>
<path d="M19.3143 16.191C19.8136 17.9164 18.4934 19.8178 16.9801 20.2586C15.4668 20.6995 13.3994 19.7851 12.9001 18.0596C12.4008 16.3342 13.4489 13.9434 14.9622 13.5025C16.9801 12.9146 18.815 14.4655 19.3143 16.191Z" fill="#222327"/>
<path d="M20.1466 16.191C19.6473 17.9164 20.9675 19.8178 22.4808 20.2586C23.9941 20.6995 26.0616 19.7851 26.5609 18.0596C27.0602 16.3342 26.012 13.9434 24.4987 13.5025C22.4808 12.9146 20.6459 14.4655 20.1466 16.191Z" fill="#222327"/>
<path d="M29.5167 28.7966C29.5167 33.1854 25.2133 34.8168 19.3432 34.8168C13.4731 34.8168 9.26709 33.1854 9.26709 28.7966C9.26709 23.6915 13.4731 19.1643 19.3432 19.1643C25.2133 19.1643 29.5167 23.3062 29.5167 28.7966Z" fill="#F3D6DD"/>
<path d="M17.4003 27.9301C17.4003 29.3675 16.4777 30.9444 15.1884 30.9444C13.8991 30.9444 11.8164 29.7732 11.8164 27.626C11.8164 25.609 14.0664 24.8916 16.3913 25.2599C17.8163 25.4857 17.4003 26.4927 17.4003 27.9301Z" fill="#222327"/>
<path d="M16.3221 27.7849C16.3221 28.0005 16.2573 28.1753 15.933 28.1753C15.6088 28.1753 15.5439 28.0005 15.5439 27.7849C15.5439 27.5693 15.6736 27.3945 15.933 27.3945C16.1924 27.3945 16.3221 27.5693 16.3221 27.7849Z" fill="white"/>
<path d="M21.3223 27.9301C21.3223 29.3675 22.2449 30.9444 23.5342 30.9444C24.8235 30.9444 26.9062 29.7732 26.9062 27.626C26.9062 25.609 24.6563 24.8916 22.3313 25.2599C20.9064 25.4857 21.3223 26.4927 21.3223 27.9301Z" fill="#222327"/>
<path d="M22.4015 27.7849C22.4015 28.0005 22.4664 28.1753 22.7906 28.1753C23.1148 28.1753 23.1797 28.0005 23.1797 27.7849C23.1797 27.5693 23.05 27.3945 22.7906 27.3945C22.5312 27.3945 22.4015 27.5693 22.4015 27.7849Z" fill="white"/>
<path d="M17.875 30.0093C17.7964 29.8947 17.6399 29.8655 17.5253 29.944C17.4107 30.0225 17.3815 30.179 17.46 30.2936L17.875 30.0093ZM19.3174 29.7L19.5554 29.6184C19.5205 29.5168 19.4249 29.4484 19.3174 29.4484C19.21 29.4484 19.1144 29.5168 19.0795 29.6184L19.3174 29.7ZM21.1749 30.2936C21.2534 30.179 21.2242 30.0225 21.1096 29.944C20.995 29.8655 20.8385 29.8947 20.7599 30.0093L21.1749 30.2936ZM17.46 30.2936C17.5295 30.395 17.6557 30.531 17.8249 30.6432C17.9957 30.7565 18.2239 30.8545 18.4925 30.8545V30.3515C18.3485 30.3515 18.2158 30.2989 18.103 30.2241C17.9886 30.1482 17.9086 30.0584 17.875 30.0093L17.46 30.2936ZM18.4925 30.8545C18.823 30.8545 19.0688 30.6187 19.2218 30.4157C19.3834 30.2014 19.4975 29.9503 19.5554 29.7815L19.0795 29.6184C19.0342 29.7506 18.9422 29.951 18.8201 30.113C18.6895 30.2862 18.5744 30.3515 18.4925 30.3515V30.8545ZM19.0795 29.7815C19.1374 29.9503 19.2515 30.2014 19.4131 30.4157C19.5661 30.6187 19.8119 30.8545 20.1424 30.8545V30.3515C20.0605 30.3515 19.9454 30.2862 19.8148 30.113C19.6927 29.951 19.6006 29.7506 19.5554 29.6184L19.0795 29.7815ZM20.1424 30.8545C20.411 30.8545 20.6392 30.7565 20.81 30.6432C20.9792 30.531 21.1054 30.395 21.1749 30.2936L20.7599 30.0093C20.7263 30.0584 20.6463 30.1482 20.5319 30.2241C20.4191 30.2989 20.2863 30.3515 20.1424 30.3515V30.8545Z" fill="#222327"/>
<path d="M20.6903 29.4678C20.6903 29.677 19.7483 29.9433 19.4313 30.027C19.3635 30.0449 19.2936 30.0449 19.2259 30.027C18.9088 29.9433 17.9668 29.677 17.9668 29.4678C17.9668 29.2162 18.7197 28.9473 19.3286 28.9473C19.9374 28.9473 20.6903 29.2162 20.6903 29.4678Z" fill="#222327"/>
<path d="M19.166 22.7765C15.3818 22.7765 13.9911 21.4471 13.7661 20.6695L15.5661 18.7129L19.466 18.0356L24.8659 20.6695C24.5409 21.2966 22.9544 22.7765 19.166 22.7765Z" fill="#222327"/>
<path fill-rule="evenodd" clip-rule="evenodd" d="M19.6898 36.9994C27.5098 36.9994 33.2427 34.7954 33.2427 28.8662C33.2427 21.4487 27.5098 15.853 19.6898 15.853C11.8698 15.853 6.2666 21.9692 6.2666 28.8662C6.2666 34.7954 11.8698 36.9994 19.6898 36.9994ZM19.3823 34.7223C25.1345 34.7223 29.3515 33.1083 29.3515 28.7663C29.3515 23.3344 25.1345 19.2367 19.3823 19.2367C13.6301 19.2367 9.50854 23.7156 9.50854 28.7663C9.50854 33.1083 13.6301 34.7223 19.3823 34.7223Z" fill="white"/>
<path d="M70.8926 22.152H73.9685V25.7406H70.8926V33.0204H66.2786V28.509C62.9976 29.1754 59.7422 29.5343 55.0001 29.5343H49.6171V26.0226H51.6678V18.7428H50.1298V15.2823H64.2792V18.7428H62.7413V25.6381C63.9973 25.4843 65.1764 25.3048 66.2786 25.0998V15.026H70.8926V22.152ZM52.1548 39.121V31.508H56.8713V35.5581H71.4052V39.121H52.1548ZM56.2817 26.0226C56.9225 25.9969 57.5377 25.9969 58.1273 25.9713V18.7428H56.2817V26.0226ZM99.6016 23.9463V27.5349H96.5256V39.121H91.9117V35.0967C88.6306 36.0451 85.3752 36.5834 80.6331 36.5834H76.0192V15.795H89.1433V19.2554H80.6331V33.0716C85.324 33.0716 88.6563 32.6103 91.9117 31.6875V15.026H96.5256V23.9463H99.6016ZM125.235 23.9463V27.5349H122.159V39.121H117.545V15.026H122.159V23.9463H125.235ZM101.652 36.5834V15.795H115.058V36.5834H101.652ZM106.266 33.0716H110.496V19.3067H106.266V33.0716ZM144.844 15.026H149.33V28.9191H144.844V15.026ZM125.747 26.1764C128.746 25.5612 131.002 24.6127 132.258 23.408L127.285 23.7156V20.3833H133.335V18.7428H127.798V15.2823H137.821V19.8962H139.282V15.1541H143.639V28.9191H139.282V23.4849H137.154C135.795 26.1251 132.386 28.3039 127.208 29.6112L125.747 26.1764ZM128.541 35.4555C134.873 35.2248 136.718 33.9175 136.718 31.6875V29.7393H141.332V32.0976C141.332 32.7128 141.255 33.3023 141.102 33.8406C144.075 34.0457 147.023 34.4558 149.33 34.9941L148.099 39.121C145.459 38.1983 141.768 37.3011 138.795 36.8141C136.667 38.2495 133.258 38.9416 129.028 39.121L128.541 35.4555Z" fill="#3692FF"/>
</svg>
