<svg width="80" height="20" viewBox="0 0 80 20" fill="none" xmlns="http://www.w3.org/2000/svg">
<path d="M17.5757 6.36557H19.9999V9.19384H17.5757V14.9312H13.9394V11.3757C11.3535 11.9009 8.78785 12.1837 5.05049 12.1837H0.808078V9.41606H2.42424V3.67871H1.21212V0.951441H12.3636V3.67871H11.1515V9.11303C12.1414 8.99182 13.0707 8.85041 13.9394 8.68879V0.749422H17.5757V6.36557ZM2.80807 19.7393V13.7393H6.52523V16.9312H17.9797V19.7393H2.80807ZM6.06059 9.41606C6.56564 9.39586 7.05048 9.39586 7.51513 9.37566V3.67871H6.06059V9.41606ZM40.2019 7.7797V10.608H37.7777V19.7393H34.1413V16.5676C31.5555 17.315 28.9898 17.7393 25.2524 17.7393H21.6161V1.35548H31.9595V4.08275H25.2524V14.9716C28.9494 14.9716 31.5757 14.608 34.1413 13.8807V0.749422H37.7777V7.7797H40.2019ZM60.4039 7.7797V10.608H57.9796V19.7393H54.3433V0.749422H57.9796V7.7797H60.4039ZM41.8181 17.7393V1.35548H52.3837V17.7393H41.8181ZM45.4544 14.9716H48.7877V4.12315H45.4544V14.9716ZM75.8584 0.749422H79.3937V11.6989H75.8584V0.749422ZM60.8079 9.53728C63.1715 9.05243 64.9493 8.30496 65.9392 7.35546L62.02 7.59789V4.97163H66.7877V3.67871H62.4241V0.951441H70.323V4.58779H71.4745V0.850432H74.9089V11.6989H71.4745V7.41607H69.7978C68.7271 9.49687 66.0402 11.214 61.9594 12.2443L60.8079 9.53728ZM63.0099 16.8504C67.9998 16.6686 69.4543 15.6383 69.4543 13.8807V12.3453H73.0907V14.2039C73.0907 14.6888 73.0301 15.1534 72.9089 15.5777C75.2523 15.7393 77.5755 16.0625 79.3937 16.4867L78.424 19.7393C76.3432 19.012 73.4341 18.3049 71.0907 17.9211C69.4139 19.0524 66.7271 19.5979 63.3938 19.7393L63.0099 16.8504Z" fill="#3692FF"/>
</svg>
