<svg width="40" height="41" viewBox="0 0 40 41" fill="none" xmlns="http://www.w3.org/2000/svg">
<rect y="0.516602" width="40" height="40.1354" rx="11.1782" fill="#3692FF"/>
<path d="M19.3143 11.6907C19.8136 13.4162 18.4934 15.3175 16.9801 15.7584C15.4668 16.1993 13.3994 15.2849 12.9001 13.5594C12.4008 11.8339 13.4489 9.44314 14.9622 9.00227C16.9801 8.41439 18.815 9.96523 19.3143 11.6907Z" fill="#222327"/>
<path d="M20.1466 11.6907C19.6473 13.4162 20.9675 15.3175 22.4808 15.7584C23.9941 16.1993 26.0616 15.2849 26.5609 13.5594C27.0602 11.8339 26.012 9.44314 24.4987 9.00227C22.4808 8.41439 20.6459 9.96523 20.1466 11.6907Z" fill="#222327"/>
<path d="M29.5172 24.2964C29.5172 28.6852 25.2138 30.3166 19.3437 30.3166C13.4736 30.3166 9.26758 28.6852 9.26758 24.2964C9.26758 19.1912 13.4736 14.6641 19.3437 14.6641C25.2138 14.6641 29.5172 18.806 29.5172 24.2964Z" fill="#F3D6DD"/>
<path d="M17.4003 23.4299C17.4003 24.8673 16.4777 26.4441 15.1884 26.4441C13.8991 26.4441 11.8164 25.2729 11.8164 23.1258C11.8164 21.1087 14.0664 20.3914 16.3913 20.7597C17.8163 20.9855 17.4003 21.9925 17.4003 23.4299Z" fill="#222327"/>
<path d="M16.3219 23.2849C16.3219 23.5005 16.257 23.6753 15.9328 23.6753C15.6085 23.6753 15.5437 23.5005 15.5437 23.2849C15.5437 23.0693 15.6734 22.8945 15.9328 22.8945C16.1922 22.8945 16.3219 23.0693 16.3219 23.2849Z" fill="white"/>
<path d="M21.3221 23.4299C21.3221 24.8673 22.2447 26.4441 23.534 26.4441C24.8233 26.4441 26.906 25.2729 26.906 23.1258C26.906 21.1087 24.6561 20.3914 22.3311 20.7597C20.9061 20.9855 21.3221 21.9925 21.3221 23.4299Z" fill="#222327"/>
<path d="M22.4018 23.2849C22.4018 23.5005 22.4666 23.6753 22.7909 23.6753C23.1151 23.6753 23.1799 23.5005 23.1799 23.2849C23.1799 23.0693 23.0502 22.8945 22.7909 22.8945C22.5315 22.8945 22.4018 23.0693 22.4018 23.2849Z" fill="white"/>
<path d="M17.8752 25.5086C17.7967 25.394 17.6402 25.3647 17.5256 25.4433C17.411 25.5218 17.3817 25.6783 17.4603 25.7929L17.8752 25.5086ZM19.3177 25.1992L19.5556 25.1177C19.5208 25.016 19.4252 24.9477 19.3177 24.9477C19.2102 24.9477 19.1146 25.016 19.0798 25.1177L19.3177 25.1992ZM21.1751 25.7929C21.2536 25.6783 21.2244 25.5218 21.1098 25.4433C20.9952 25.3647 20.8387 25.394 20.7602 25.5086L21.1751 25.7929ZM17.4603 25.7929C17.5297 25.8943 17.6559 26.0302 17.8252 26.1425C17.996 26.2558 18.2241 26.3538 18.4927 26.3538V25.8507C18.3488 25.8507 18.216 25.7982 18.1032 25.7233C17.9889 25.6475 17.9088 25.5577 17.8752 25.5086L17.4603 25.7929ZM18.4927 26.3538C18.8232 26.3538 19.0691 26.118 19.2221 25.915C19.3836 25.7006 19.4978 25.4496 19.5556 25.2807L19.0798 25.1177C19.0345 25.2498 18.9424 25.4503 18.8204 25.6122C18.6898 25.7855 18.5747 25.8507 18.4927 25.8507V26.3538ZM19.0798 25.2807C19.1376 25.4496 19.2518 25.7006 19.4133 25.915C19.5663 26.118 19.8122 26.3538 20.1427 26.3538V25.8507C20.0607 25.8507 19.9456 25.7855 19.815 25.6122C19.693 25.4503 19.6009 25.2498 19.5556 25.1177L19.0798 25.2807ZM20.1427 26.3538C20.4112 26.3538 20.6394 26.2558 20.8102 26.1425C20.9794 26.0302 21.1056 25.8943 21.1751 25.7929L20.7602 25.5086C20.7265 25.5577 20.6465 25.6475 20.5321 25.7233C20.4193 25.7982 20.2866 25.8507 20.1427 25.8507V26.3538Z" fill="#222327"/>
<path d="M20.6908 24.9673C20.6908 25.1765 19.7488 25.4428 19.4318 25.5265C19.364 25.5444 19.2941 25.5444 19.2264 25.5265C18.9093 25.4428 17.9673 25.1765 17.9673 24.9673C17.9673 24.7158 18.7202 24.4468 19.3291 24.4468C19.9379 24.4468 20.6908 24.7158 20.6908 24.9673Z" fill="#222327"/>
<path d="M19.1663 18.2765C15.382 18.2765 13.9914 16.9471 13.7664 16.1695L15.5663 14.2129L19.4662 13.5356L24.8661 16.1695C24.5411 16.7966 22.9546 18.2765 19.1663 18.2765Z" fill="#222327"/>
<path fill-rule="evenodd" clip-rule="evenodd" d="M19.69 32.4994C27.5101 32.4994 33.2429 30.2954 33.2429 24.3662C33.2429 16.9487 27.5101 11.353 19.69 11.353C11.87 11.353 6.26685 17.4692 6.26685 24.3662C6.26685 30.2954 11.87 32.4994 19.69 32.4994ZM19.3826 30.2223C25.1348 30.2223 29.3518 28.6083 29.3518 24.2663C29.3518 18.8344 25.1348 14.7367 19.3826 14.7367C13.6303 14.7367 9.50878 19.2156 9.50878 24.2663C9.50878 28.6083 13.6303 30.2223 19.3826 30.2223Z" fill="white"/>
</svg>
