<svg width="40" height="40" viewBox="0 0 40 40" fill="none" xmlns="http://www.w3.org/2000/svg">
<g clip-path="url(#clip0_28783_16814)">
<circle cx="20" cy="20" r="20" fill="#D1D5DB"/>
<path d="M19.374 8.72943C19.8844 10.4932 18.535 12.4366 16.9881 12.8872C15.4413 13.3379 13.328 12.4032 12.8176 10.6395C12.3073 8.8758 13.3787 6.43205 14.9255 5.98141C16.9881 5.38051 18.8637 6.96571 19.374 8.72943Z" fill="white"/>
<path d="M20.2247 8.72943C19.7143 10.4932 21.0638 12.4366 22.6106 12.8872C24.1575 13.3379 26.2708 12.4032 26.7811 10.6395C27.2915 8.8758 26.2201 6.43205 24.6732 5.98141C22.6106 5.38051 20.7351 6.96571 20.2247 8.72943Z" fill="white"/>
<path d="M29.8016 21.6148C29.8016 26.1009 25.4028 27.7684 19.4026 27.7684C13.4025 27.7684 9.10324 26.1009 9.10324 21.6148C9.10324 16.3965 13.4025 11.769 19.4026 11.769C25.4028 11.769 29.8016 16.0027 29.8016 21.6148Z" fill="white"/>
<path d="M17.4167 20.7286C17.4167 22.1979 16.4736 23.8097 15.1558 23.8097C13.8379 23.8097 11.709 22.6125 11.709 20.4178C11.709 18.3561 14.0089 17.6228 16.3853 17.9993C17.8419 18.2301 17.4167 19.2594 17.4167 20.7286Z" fill="#D1D5DB"/>
<path d="M16.3158 20.5797C16.3158 20.8001 16.2495 20.9788 15.9181 20.9788C15.5867 20.9788 15.5204 20.8001 15.5204 20.5797C15.5204 20.3593 15.653 20.1807 15.9181 20.1807C16.1832 20.1807 16.3158 20.3593 16.3158 20.5797Z" fill="white"/>
<path d="M21.4257 20.7286C21.4257 22.1979 22.3688 23.8097 23.6867 23.8097C25.0045 23.8097 27.1334 22.6125 27.1334 20.4178C27.1334 18.3561 24.8336 17.6228 22.4571 17.9993C21.0006 18.2301 21.4257 19.2594 21.4257 20.7286Z" fill="#D1D5DB"/>
<path d="M22.5283 20.5797C22.5283 20.8001 22.5946 20.9788 22.926 20.9788C23.2574 20.9788 23.3237 20.8001 23.3237 20.5797C23.3237 20.3593 23.1911 20.1807 22.926 20.1807C22.6609 20.1807 22.5283 20.3593 22.5283 20.5797Z" fill="white"/>
<path fill-rule="evenodd" clip-rule="evenodd" d="M19.7575 30.0002C27.7508 30.0002 33.6107 27.7474 33.6107 21.6868C33.6107 14.1049 27.7508 8.38525 19.7575 8.38525C11.7642 8.38525 6.03683 14.637 6.03683 21.6868C6.03683 27.7474 11.7642 30.0002 19.7575 30.0002ZM19.4429 27.6726C25.3226 27.6726 29.633 26.0229 29.633 21.5846C29.633 16.0324 25.3226 11.8438 19.4429 11.8438C13.5632 11.8438 9.35031 16.422 9.35031 21.5846C9.35031 26.0229 13.5632 27.6726 19.4429 27.6726Z" fill="white"/>
<mask id="mask0_28783_16814" style="mask-type:alpha" maskUnits="userSpaceOnUse" x="0" y="0" width="40" height="40">
<circle cx="20" cy="20" r="20" fill="#9CA3AF"/>
</mask>
<g mask="url(#mask0_28783_16814)">
<ellipse cx="19.5833" cy="37.5" rx="11.25" ry="12.5" fill="white"/>
</g>
</g>
<defs>
<clipPath id="clip0_28783_16814">
<rect width="40" height="40" fill="white"/>
</clipPath>
</defs>
</svg>
