<svg width="104" height="105" viewBox="0 0 104 105" fill="none" xmlns="http://www.w3.org/2000/svg">
<rect y="0.984375" width="103.529" height="103.88" rx="28.9317" fill="#3692FF"/>
<path d="M49.9902 29.9061C51.2825 34.372 47.8655 39.2931 43.9487 40.4342C40.0319 41.5753 34.6808 39.2086 33.3885 34.7427C32.0962 30.2767 34.8091 24.0888 38.7259 22.9477C43.9487 21.4262 48.6978 25.4401 49.9902 29.9061Z" fill="#222327"/>
<path d="M52.1441 29.9061C50.8518 34.372 54.2688 39.2931 58.1856 40.4342C62.1024 41.5753 67.4535 39.2086 68.7458 34.7427C70.0381 30.2767 67.3252 24.0888 63.4084 22.9477C58.1856 21.4262 53.4364 25.4401 52.1441 29.9061Z" fill="#222327"/>
<path d="M76.3971 62.5322C76.3971 73.8915 65.2589 78.1139 50.0657 78.1139C34.8725 78.1139 23.9863 73.8915 23.9863 62.5322C23.9863 49.319 34.8725 37.6016 50.0657 37.6016C65.2589 37.6016 76.3971 48.3217 76.3971 62.5322Z" fill="#F3D6DD"/>
<path d="M45.0365 60.2896C45.0365 64.01 42.6485 68.0912 39.3115 68.0912C35.9745 68.0912 30.584 65.0599 30.584 59.5025C30.584 54.282 36.4074 52.4253 42.4249 53.3786C46.1131 53.9629 45.0365 56.5693 45.0365 60.2896Z" fill="#222327"/>
<path d="M42.245 59.9139C42.245 60.4719 42.0772 60.9243 41.238 60.9243C40.3988 60.9243 40.231 60.4719 40.231 59.9139C40.231 59.3558 40.5666 58.9034 41.238 58.9034C41.9093 58.9034 42.245 59.3558 42.245 59.9139Z" fill="white"/>
<path d="M55.1867 60.2896C55.1867 64.01 57.5746 68.0912 60.9116 68.0912C64.2486 68.0912 69.6392 65.0599 69.6392 59.5025C69.6392 54.282 63.8157 52.4253 57.7982 53.3786C54.1101 53.9629 55.1867 56.5693 55.1867 60.2896Z" fill="#222327"/>
<path d="M57.9811 59.9139C57.9811 60.4719 58.1489 60.9243 58.9881 60.9243C59.8273 60.9243 59.9951 60.4719 59.9951 59.9139C59.9951 59.3558 59.6594 58.9034 58.9881 58.9034C58.3167 58.9034 57.9811 59.3558 57.9811 59.9139Z" fill="white"/>
<path d="M46.2655 65.6707C46.0623 65.3741 45.6572 65.2984 45.3606 65.5016C45.064 65.7048 44.9883 66.11 45.1915 66.4066L46.2655 65.6707ZM49.999 64.87L50.6148 64.659C50.5247 64.3958 50.2772 64.219 49.999 64.219C49.7208 64.219 49.4734 64.3958 49.3832 64.659L49.999 64.87ZM54.8065 66.4066C55.0097 66.11 54.934 65.7048 54.6375 65.5016C54.3409 65.2984 53.9357 65.3741 53.7325 65.6707L54.8065 66.4066ZM45.1915 66.4066C45.3714 66.669 45.698 67.0209 46.136 67.3115C46.5781 67.6047 47.1686 67.8582 47.8638 67.8582V66.5563C47.4913 66.5563 47.1477 66.4202 46.8557 66.2266C46.5598 66.0302 46.3526 65.7978 46.2655 65.6707L45.1915 66.4066ZM47.8638 67.8582C48.7192 67.8582 49.3555 67.248 49.7515 66.7226C50.1696 66.1678 50.4651 65.518 50.6148 65.081L49.3832 64.659C49.266 65.001 49.0277 65.5199 48.7118 65.939C48.3738 66.3874 48.0759 66.5563 47.8638 66.5563V67.8582ZM49.3832 65.081C49.5329 65.518 49.8284 66.1678 50.2465 66.7226C50.6425 67.248 51.2788 67.8582 52.1343 67.8582V66.5563C51.9221 66.5563 51.6242 66.3874 51.2862 65.939C50.9703 65.5199 50.732 65.001 50.6148 64.659L49.3832 65.081ZM52.1343 67.8582C52.8294 67.8582 53.42 67.6047 53.862 67.3115C54.3 67.0209 54.6267 66.669 54.8065 66.4066L53.7325 65.6707C53.6455 65.7978 53.4383 66.0302 53.1423 66.2266C52.8504 66.4202 52.5068 66.5563 52.1343 66.5563V67.8582Z" fill="#222327"/>
<path d="M53.5531 64.2691C53.5531 64.8106 51.1149 65.4998 50.2943 65.7165C50.1189 65.7628 49.9381 65.7628 49.7627 65.7165C48.9421 65.4998 46.5039 64.8106 46.5039 64.2691C46.5039 63.6181 48.4527 62.9219 50.0285 62.9219C51.6043 62.9219 53.5531 63.6181 53.5531 64.2691Z" fill="#222327"/>
<path d="M49.6071 46.9512C39.8126 46.9512 36.2132 43.5103 35.6309 41.4976L40.2896 36.4336L50.3835 34.6807L64.3597 41.4976C63.5185 43.1207 59.4123 46.9512 49.6071 46.9512Z" fill="#222327"/>
<path fill-rule="evenodd" clip-rule="evenodd" d="M50.9626 83.7631C71.2026 83.7631 86.0406 78.0587 86.0406 62.7124C86.0406 43.5141 71.2026 29.0312 50.9626 29.0312C30.7226 29.0312 16.2202 44.8614 16.2202 62.7124C16.2202 78.0587 30.7226 83.7631 50.9626 83.7631ZM50.167 77.8696C65.0551 77.8696 75.9696 73.6922 75.9696 62.454C75.9696 48.395 65.0551 37.7891 50.167 37.7891C35.2789 37.7891 24.6113 49.3816 24.6113 62.454C24.6113 73.6922 35.2789 77.8696 50.167 77.8696Z" fill="white"/>
</svg>
