<svg width="32" height="32" viewBox="0 0 32 32" fill="none" xmlns="http://www.w3.org/2000/svg">
<g clip-path="url(#clip0_43780_691)">
<circle cx="16" cy="16" r="16" fill="#D1D5DB"/>
<path d="M15.4991 6.98345C15.9074 8.39442 14.8279 9.94919 13.5904 10.3097C12.3529 10.6702 10.6623 9.92249 10.254 8.51152C9.84572 7.10054 10.7028 5.14554 11.9403 4.78503C13.5904 4.30431 15.0908 5.57247 15.4991 6.98345Z" fill="white"/>
<path d="M16.1796 6.98345C15.7713 8.39442 16.8508 9.94919 18.0883 10.3097C19.3258 10.6702 21.0164 9.92249 21.4247 8.51152C21.833 7.10054 20.9759 5.14554 19.7384 4.78503C18.0883 4.30431 16.5879 5.57247 16.1796 6.98345Z" fill="white"/>
<path d="M23.8409 17.2919C23.8409 20.8807 20.3219 22.2148 15.5218 22.2148C10.7216 22.2148 7.28223 20.8807 7.28223 17.2919C7.28223 13.1173 10.7216 9.41528 15.5218 9.41528C20.3219 9.41528 23.8409 12.8022 23.8409 17.2919Z" fill="white"/>
<path d="M13.9333 16.583C13.9333 17.7584 13.1789 19.0478 12.1246 19.0478C11.0703 19.0478 9.36719 18.0901 9.36719 16.3343C9.36719 14.6849 11.207 14.0983 13.1082 14.3995C14.2735 14.5841 13.9333 15.4076 13.9333 16.583Z" fill="#D1D5DB"/>
<path d="M13.0528 16.4638C13.0528 16.6401 12.9998 16.783 12.7347 16.783C12.4695 16.783 12.4165 16.6401 12.4165 16.4638C12.4165 16.2875 12.5226 16.1445 12.7347 16.1445C12.9468 16.1445 13.0528 16.2875 13.0528 16.4638Z" fill="white"/>
<path d="M17.1404 16.583C17.1404 17.7584 17.8949 19.0478 18.9492 19.0478C20.0034 19.0478 21.7065 18.0901 21.7065 16.3343C21.7065 14.6849 19.8667 14.0983 17.9655 14.3995C16.8003 14.5841 17.1404 15.4076 17.1404 16.583Z" fill="#D1D5DB"/>
<path d="M18.0229 16.4638C18.0229 16.6401 18.0759 16.783 18.341 16.783C18.6062 16.783 18.6592 16.6401 18.6592 16.4638C18.6592 16.2875 18.5531 16.1445 18.341 16.1445C18.1289 16.1445 18.0229 16.2875 18.0229 16.4638Z" fill="white"/>
<path fill-rule="evenodd" clip-rule="evenodd" d="M15.8056 24.0002C22.2003 24.0002 26.8882 22.198 26.8882 17.3495C26.8882 11.284 22.2003 6.70825 15.8056 6.70825C9.41097 6.70825 4.8291 11.7096 4.8291 17.3495C4.8291 22.198 9.41097 24.0002 15.8056 24.0002ZM15.5541 22.1381C20.2579 22.1381 23.7062 20.8183 23.7062 17.2677C23.7062 12.8258 20.2579 9.475 15.5541 9.475C10.8504 9.475 7.48008 13.1375 7.48008 17.2677C7.48008 20.8183 10.8504 22.1381 15.5541 22.1381Z" fill="white"/>
<mask id="mask0_43780_691" style="mask-type:alpha" maskUnits="userSpaceOnUse" x="0" y="0" width="32" height="32">
<circle cx="16" cy="16" r="16" fill="#9CA3AF"/>
</mask>
<g mask="url(#mask0_43780_691)">
<ellipse cx="15.667" cy="30" rx="9" ry="10" fill="white"/>
</g>
</g>
<defs>
<clipPath id="clip0_43780_691">
<rect width="32" height="32" fill="white"/>
</clipPath>
</defs>
</svg>
