<svg width="32" height="33" viewBox="0 0 32 33" fill="none" xmlns="http://www.w3.org/2000/svg">
<g clip-path="url(#clip0_36486_4707)">
<circle cx="16" cy="16.5" r="16" fill="#D1D5DB"/>
<path d="M15.4994 7.48354C15.9077 8.89452 14.8281 10.4493 13.5906 10.8098C12.3532 11.1703 10.6625 10.4226 10.2543 9.01161C9.84596 7.60063 10.7031 5.64563 11.9406 5.28512C13.5906 4.8044 15.0911 6.07256 15.4994 7.48354Z" fill="white"/>
<path d="M16.1801 7.48354C15.7718 8.89452 16.8513 10.4493 18.0888 10.8098C19.3263 11.1703 21.0169 10.4226 21.4252 9.01161C21.8335 7.60063 20.9764 5.64563 19.7389 5.28512C18.0888 4.8044 16.5884 6.07256 16.1801 7.48354Z" fill="white"/>
<path d="M23.8414 17.7918C23.8414 21.3807 20.3224 22.7147 15.5222 22.7147C10.7221 22.7147 7.28271 21.3807 7.28271 17.7918C7.28271 13.6172 10.7221 9.91522 15.5222 9.91522C20.3224 9.91522 23.8414 13.3022 23.8414 17.7918Z" fill="white"/>
<path d="M13.9335 17.0829C13.9335 18.2583 13.1791 19.5478 12.1248 19.5478C11.0705 19.5478 9.36743 18.59 9.36743 16.8342C9.36743 15.1849 11.2073 14.5982 13.1085 14.8994C14.2737 15.0841 13.9335 15.9075 13.9335 17.0829Z" fill="#D1D5DB"/>
<path d="M13.0529 16.9637C13.0529 17.14 12.9999 17.2829 12.7348 17.2829C12.4697 17.2829 12.4166 17.14 12.4166 16.9637C12.4166 16.7874 12.5227 16.6444 12.7348 16.6444C12.9469 16.6444 13.0529 16.7874 13.0529 16.9637Z" fill="white"/>
<path d="M17.1407 17.0828C17.1407 18.2582 17.8951 19.5477 18.9494 19.5477C20.0037 19.5477 21.7068 18.59 21.7068 16.8341C21.7068 15.1848 19.8669 14.5982 17.9658 14.8994C16.8005 15.084 17.1407 15.9074 17.1407 17.0828Z" fill="#D1D5DB"/>
<path d="M18.0227 16.9637C18.0227 17.14 18.0758 17.2829 18.3409 17.2829C18.606 17.2829 18.6591 17.14 18.6591 16.9637C18.6591 16.7874 18.553 16.6444 18.3409 16.6444C18.1288 16.6444 18.0227 16.7874 18.0227 16.9637Z" fill="white"/>
<path fill-rule="evenodd" clip-rule="evenodd" d="M15.8061 24.5002C22.2007 24.5002 26.8887 22.6979 26.8887 17.8494C26.8887 11.7839 22.2007 7.20819 15.8061 7.20819C9.41146 7.20819 4.82959 12.2096 4.82959 17.8494C4.82959 22.6979 9.41146 24.5002 15.8061 24.5002ZM15.5546 22.638C20.2584 22.638 23.7067 21.3182 23.7067 17.7676C23.7067 13.3258 20.2584 9.97494 15.5546 9.97494C10.8509 9.97494 7.48057 13.6375 7.48057 17.7676C7.48057 21.3182 10.8509 22.638 15.5546 22.638Z" fill="white"/>
<mask id="mask0_36486_4707" style="mask-type:alpha" maskUnits="userSpaceOnUse" x="0" y="0" width="32" height="33">
<circle cx="16" cy="16.5" r="16" fill="#9CA3AF"/>
</mask>
<g mask="url(#mask0_36486_4707)">
<ellipse cx="15.6667" cy="30.5" rx="9" ry="10" fill="white"/>
</g>
</g>
<defs>
<clipPath id="clip0_36486_4707">
<rect width="32" height="32" fill="white" transform="translate(0 0.5)"/>
</clipPath>
</defs>
</svg>
