<svg width="24" height="24" viewBox="0 0 24 24" fill="none" xmlns="http://www.w3.org/2000/svg">
<path d="M6.03326 3.6C5.53621 3.6 5.13326 4.00294 5.13326 4.5C5.13326 4.99706 5.53621 5.4 6.03326 5.4V3.6ZM6.03326 5.4H16.1666V3.6H6.03326V5.4ZM20.5999 9.83333V10.9H22.3999V9.83333H20.5999ZM16.1666 15.3333H6.03326V17.1333H16.1666V15.3333ZM20.5999 10.9C20.5999 13.3485 18.6151 15.3333 16.1666 15.3333V17.1333C19.6092 17.1333 22.3999 14.3426 22.3999 10.9H20.5999ZM16.1666 5.4C18.6151 5.4 20.5999 7.38487 20.5999 9.83333H22.3999C22.3999 6.39076 19.6092 3.6 16.1666 3.6V5.4Z" fill="white"/>
<path d="M2.5 16.2333L9.7 12.5383L9.7 19.9284L2.5 16.2333Z" fill="white"/>
</svg>
