<svg width="40" height="41" viewBox="0 0 40 41" fill="none" xmlns="http://www.w3.org/2000/svg">
<rect y="0.0167847" width="40" height="40.1354" rx="11.1782" fill="#3692FF"/>
<path d="M19.3143 11.191C19.8136 12.9165 18.4934 14.8178 16.9801 15.2587C15.4668 15.6996 13.3994 14.7852 12.9001 13.0597C12.4008 11.3342 13.4489 8.94345 14.9622 8.50258C16.9801 7.9147 18.815 9.46554 19.3143 11.191Z" fill="#222327"/>
<path d="M20.1466 11.191C19.6473 12.9165 20.9675 14.8178 22.4808 15.2587C23.9941 15.6996 26.0616 14.7852 26.5609 13.0597C27.0602 11.3342 26.012 8.94345 24.4987 8.50258C22.4808 7.9147 20.6459 9.46554 20.1466 11.191Z" fill="#222327"/>
<path d="M29.5172 23.7966C29.5172 28.1854 25.2138 29.8168 19.3437 29.8168C13.4736 29.8168 9.26758 28.1854 9.26758 23.7966C9.26758 18.6915 13.4736 14.1643 19.3437 14.1643C25.2138 14.1643 29.5172 18.3062 29.5172 23.7966Z" fill="#F3D6DD"/>
<path d="M17.4003 22.9301C17.4003 24.3675 16.4777 25.9444 15.1884 25.9444C13.8991 25.9444 11.8164 24.7732 11.8164 22.626C11.8164 20.609 14.0664 19.8916 16.3913 20.2599C17.8163 20.4857 17.4003 21.4927 17.4003 22.9301Z" fill="#222327"/>
<path d="M16.3219 22.785C16.3219 23.0007 16.257 23.1754 15.9328 23.1754C15.6085 23.1754 15.5437 23.0007 15.5437 22.785C15.5437 22.5694 15.6734 22.3947 15.9328 22.3947C16.1922 22.3947 16.3219 22.5694 16.3219 22.785Z" fill="white"/>
<path d="M21.3221 22.9302C21.3221 24.3676 22.2447 25.9444 23.534 25.9444C24.8233 25.9444 26.906 24.7732 26.906 22.6261C26.906 20.609 24.6561 19.8917 22.3311 20.26C20.9061 20.4858 21.3221 21.4928 21.3221 22.9302Z" fill="#222327"/>
<path d="M22.4018 22.785C22.4018 23.0006 22.4666 23.1754 22.7909 23.1754C23.1151 23.1754 23.1799 23.0006 23.1799 22.785C23.1799 22.5694 23.0502 22.3946 22.7909 22.3946C22.5315 22.3946 22.4018 22.5694 22.4018 22.785Z" fill="white"/>
<path d="M17.8752 25.0092C17.7967 24.8946 17.6402 24.8654 17.5256 24.9439C17.411 25.0224 17.3817 25.1789 17.4603 25.2935L17.8752 25.0092ZM19.3177 24.6998L19.5556 24.6183C19.5208 24.5166 19.4252 24.4483 19.3177 24.4483C19.2102 24.4483 19.1146 24.5166 19.0798 24.6183L19.3177 24.6998ZM21.1751 25.2935C21.2536 25.1789 21.2244 25.0224 21.1098 24.9439C20.9952 24.8654 20.8387 24.8946 20.7602 25.0092L21.1751 25.2935ZM17.4603 25.2935C17.5297 25.3949 17.6559 25.5308 17.8252 25.6431C17.996 25.7564 18.2241 25.8544 18.4927 25.8544V25.3514C18.3488 25.3514 18.216 25.2988 18.1032 25.224C17.9889 25.1481 17.9088 25.0583 17.8752 25.0092L17.4603 25.2935ZM18.4927 25.8544C18.8232 25.8544 19.0691 25.6186 19.2221 25.4156C19.3836 25.2013 19.4978 24.9502 19.5556 24.7813L19.0798 24.6183C19.0345 24.7505 18.9424 24.9509 18.8204 25.1128C18.6898 25.2861 18.5747 25.3514 18.4927 25.3514V25.8544ZM19.0798 24.7813C19.1376 24.9502 19.2518 25.2013 19.4133 25.4156C19.5663 25.6186 19.8122 25.8544 20.1427 25.8544V25.3514C20.0607 25.3514 19.9456 25.2861 19.815 25.1128C19.693 24.9509 19.6009 24.7505 19.5556 24.6183L19.0798 24.7813ZM20.1427 25.8544C20.4112 25.8544 20.6394 25.7564 20.8102 25.6431C20.9794 25.5308 21.1056 25.3949 21.1751 25.2935L20.7602 25.0092C20.7265 25.0583 20.6465 25.1481 20.5321 25.224C20.4193 25.2988 20.2866 25.3514 20.1427 25.3514V25.8544Z" fill="#222327"/>
<path d="M20.6908 24.4677C20.6908 24.6769 19.7488 24.9432 19.4318 25.0269C19.364 25.0448 19.2941 25.0448 19.2264 25.0269C18.9093 24.9432 17.9673 24.6769 17.9673 24.4677C17.9673 24.2162 18.7202 23.9472 19.3291 23.9472C19.9379 23.9472 20.6908 24.2162 20.6908 24.4677Z" fill="#222327"/>
<path d="M19.1663 17.7767C15.382 17.7767 13.9914 16.4472 13.7664 15.6696L15.5663 13.713L19.4662 13.0358L24.8661 15.6696C24.5411 16.2967 22.9546 17.7767 19.1663 17.7767Z" fill="#222327"/>
<path fill-rule="evenodd" clip-rule="evenodd" d="M19.69 31.9995C27.5101 31.9995 33.2429 29.7956 33.2429 23.8663C33.2429 16.4488 27.5101 10.8531 19.69 10.8531C11.87 10.8531 6.26685 16.9693 6.26685 23.8663C6.26685 29.7956 11.87 31.9995 19.69 31.9995ZM19.3826 29.7225C25.1348 29.7225 29.3518 28.1085 29.3518 23.7664C29.3518 18.3345 25.1348 14.2368 19.3826 14.2368C13.6303 14.2368 9.50878 18.7157 9.50878 23.7664C9.50878 28.1085 13.6303 29.7225 19.3826 29.7225Z" fill="white"/>
</svg>
