<svg width="25" height="24" viewBox="0 0 25 24" fill="none" xmlns="http://www.w3.org/2000/svg">
<path d="M6.53326 3.6C6.03621 3.6 5.63326 4.00294 5.63326 4.5C5.63326 4.99706 6.03621 5.4 6.53326 5.4V3.6ZM6.53326 5.4H16.6666V3.6H6.53326V5.4ZM21.0999 9.83333V10.9H22.8999V9.83333H21.0999ZM16.6666 15.3333H6.53326V17.1333H16.6666V15.3333ZM21.0999 10.9C21.0999 13.3485 19.1151 15.3333 16.6666 15.3333V17.1333C20.1092 17.1333 22.8999 14.3426 22.8999 10.9H21.0999ZM16.6666 5.4C19.1151 5.4 21.0999 7.38487 21.0999 9.83333H22.8999C22.8999 6.39076 20.1092 3.6 16.6666 3.6V5.4Z" fill="white"/>
<path d="M3 16.2333L10.2 12.5383L10.2 19.9284L3 16.2333Z" fill="white"/>
</svg>
