<svg xmlns="http://www.w3.org/2000/svg" viewBox="0 0 100 100" preserveAspectRatio="xMidYMid" width="200" height="200" style="shape-rendering: auto; display: block; background: rgb(255, 255, 255);"><g data-idx="1"><g transform="matrix(1,0,0,1,80,50)" data-idx="2">
<g transform="matrix(1,0,0,1,0,0)" data-idx="3">
<circle fill-opacity="0.544999" fill="#3692ff" r="6" cy="0" cx="0" data-idx="4" transform="matrix(1.2724995613098145,0,0,1.2724995613098145,0,0)">
  
  
</circle>
</g>
</g><g transform="matrix(1,0,0,1,71.21320343017578,71.21320343017578)" data-idx="7">
<g transform="matrix(0.7071067811865476,0.7071067811865476,-0.7071067811865476,0.7071067811865476,0,0)" data-idx="8">
<circle fill-opacity="0.669999" fill="#3692ff" r="6" cy="0" cx="0" data-idx="9" transform="matrix(1.3349995613098145,0,0,1.3349995613098145,0,0)">
  
  
</circle>
</g>
</g><g transform="matrix(1,0,0,1,50,80)" data-idx="12">
<g transform="matrix(6.123233995736766e-17,1,-1,6.123233995736766e-17,0,0)" data-idx="13">
<circle fill-opacity="0.794999" fill="#3692ff" r="6" cy="0" cx="0" data-idx="14" transform="matrix(1.3974995613098145,0,0,1.3974995613098145,0,0)">
  
  
</circle>
</g>
</g><g transform="matrix(1,0,0,1,28.78679656982422,71.21320343017578)" data-idx="17">
<g transform="matrix(-0.7071067811865475,0.7071067811865476,-0.7071067811865476,-0.7071067811865475,0,0)" data-idx="18">
<circle fill-opacity="0.919999" fill="#3692ff" r="6" cy="0" cx="0" data-idx="19" transform="matrix(1.4599995613098145,0,0,1.4599995613098145,0,0)">
  
  
</circle>
</g>
</g><g transform="matrix(1,0,0,1,20,50)" data-idx="22">
<g transform="matrix(-1,1.2246467991473532e-16,-1.2246467991473532e-16,-1,0,0)" data-idx="23">
<circle fill-opacity="0.044999" fill="#3692ff" r="6" cy="0" cx="0" data-idx="24" transform="matrix(1.0224995613098145,0,0,1.0224995613098145,0,0)">
  
  
</circle>
</g>
</g><g transform="matrix(1,0,0,1,28.78679656982422,28.78679656982422)" data-idx="27">
<g transform="matrix(-0.7071067811865477,-0.7071067811865475,0.7071067811865475,-0.7071067811865477,0,0)" data-idx="28">
<circle fill-opacity="0.169999" fill="#3692ff" r="6" cy="0" cx="0" data-idx="29" transform="matrix(1.0849995613098145,0,0,1.0849995613098145,0,0)">
  
  
</circle>
</g>
</g><g transform="matrix(1,0,0,1,50,20)" data-idx="32">
<g transform="matrix(-1.8369701987210297e-16,-1,1,-1.8369701987210297e-16,0,0)" data-idx="33">
<circle fill-opacity="0.294999" fill="#3692ff" r="6" cy="0" cx="0" data-idx="34" transform="matrix(1.1474995613098145,0,0,1.1474995613098145,0,0)">
  
  
</circle>
</g>
</g><g transform="matrix(1,0,0,1,71.21320343017578,28.78679656982422)" data-idx="37">
<g transform="matrix(0.7071067811865474,-0.7071067811865477,0.7071067811865477,0.7071067811865474,0,0)" data-idx="38">
<circle fill-opacity="0.419999" fill="#3692ff" r="6" cy="0" cx="0" data-idx="39" transform="matrix(1.2099995613098145,0,0,1.2099995613098145,0,0)">
  
  
</circle>
</g>
</g><g data-idx="42"></g></g><text data-watermark="true" text-anchor="middle" dominant-baseline="middle" stroke-opacity="0.1" fill="black" fill-opacity="0.1" stroke="white" stroke-width="1" font-size="5.0" x="50" y="50" data-idx="43" style="opacity: 1; font-size: 5px;">LOADING.IO</text></svg>